<?xml version="1.0" encoding="utf-8"?>
<!-- Generator: Adobe Illustrator 20.1.0, SVG Export Plug-In . SVG Version: 6.00 Build 0)  -->
<svg version="1.1" id="Layer_1" xmlns="http://www.w3.org/2000/svg" xmlns:xlink="http://www.w3.org/1999/xlink" x="0px" y="0px"
	 viewBox="0 0 24 24" style="enable-background:new 0 0 24 24;" xml:space="preserve" fill="#122E51">
<g>
	<g>
		<path d="M21.5,17c-0.3,0-0.5-0.2-0.5-0.5V5.2C21,5.1,20.9,5,20.8,5H3.2C3.1,5,3,5.1,3,5.2v11.3C3,16.8,2.8,17,2.5,17
			S2,16.8,2,16.5V5.2C2,4.5,2.5,4,3.2,4h17.6C21.5,4,22,4.5,22,5.2v11.3C22,16.8,21.8,17,21.5,17z"/>
	</g>
	<g>
		<path d="M22.7,21H1.3C0.6,21,0,20.4,0,19.7v-1.2C0,18.3,0.2,18,0.5,18h10.3c0.3,0,0.5,0.2,0.5,0.5v0.3l1.5-0.1l-0.1-0.2
			c0-0.3,0.2-0.5,0.5-0.5h10.3c0.3,0,0.5,0.2,0.5,0.5v1.2C24,20.4,23.4,21,22.7,21z M1,19v0.7C1,19.9,1.1,20,1.3,20h21.4
			c0.2,0,0.3-0.1,0.3-0.3V19h-9.3c-0.1,0.4-0.5,0.7-0.9,0.7h-1.6c-0.4,0-0.8-0.3-0.9-0.7H1z"/>
	</g>
</g>
</svg>
