<?xml version="1.0" encoding="utf-8"?>
<!-- Generator: Adobe Illustrator 20.1.0, SVG Export Plug-In . SVG Version: 6.00 Build 0)  -->
<svg version="1.1" id="Layer_1" xmlns="http://www.w3.org/2000/svg" xmlns:xlink="http://www.w3.org/1999/xlink" x="0px" y="0px"
	 viewBox="0 0 24 24" style="enable-background:new 0 0 24 24;" xml:space="preserve" fill="#ffffff">
<g>
</g>
<g>
	<path d="M17.8,24c-2.9,0-6.4-2.2-11-6.9C2.3,12.4,0.1,8.8,0.2,6c0-2.4,1.6-3.8,2.9-5.1c0.2-0.2,0.4-0.4,0.6-0.5
		c0.4-0.4,1.1-0.4,1.5,0L10.7,6C10.9,6.2,11,6.4,11,6.7c0,0.3-0.1,0.5-0.3,0.7L9,9.1C8.9,9.4,9.7,11,11.6,13
		c1.7,1.7,2.9,2.2,3.2,2.1l0,0c0,0,0.2-0.2,1.6-1.5l0.1-0.1c0.4-0.4,1.1-0.4,1.5,0l5.6,5.6c0.4,0.4,0.4,1,0,1.5l-0.3,0.3
		C21.9,22.3,20.4,23.9,17.8,24C17.9,24,17.9,24,17.8,24z M4.5,1C4.2,1.2,4,1.4,3.8,1.6C2.5,2.8,1.2,4,1.2,6c0,2.5,2,5.9,6.4,10.4
		c4.4,4.5,7.7,6.6,10.3,6.6c0,0,0,0,0.1,0c2,0,3.3-1.5,4.6-2.9l0.3-0.3l-5.5-5.7v0c0,0,0,0-0.1,0l-0.1,0.1c-1.7,1.6-1.7,1.7-1.8,1.7
		c-1.6,0.8-4.9-2.5-6.1-4.2C8,10.1,7.7,9,8.3,8.4L10,6.7L4.5,1z"/>
</g>
</svg>
