<?xml version="1.0" encoding="utf-8"?>
<!-- Generator: Adobe Illustrator 18.1.0, SVG Export Plug-In . SVG Version: 6.00 Build 0)  -->
<svg version="1.1" id="Layer_1" xmlns="http://www.w3.org/2000/svg" xmlns:xlink="http://www.w3.org/1999/xlink" x="0px" y="0px"
	 width="24px" height="24px" viewBox="0 0 24 24" enable-background="new 0 0 24 24" xml:space="preserve">
<g>
	<path d="M19.4492,8.314h-3.3037c-0.2764,0-0.5-0.2236-0.5-0.5V4.5098c0-0.2764,0.2236-0.5,0.5-0.5s0.5,0.2236,0.5,0.5V7.314h2.8037
		c0.2764,0,0.5,0.2236,0.5,0.5S19.7256,8.314,19.4492,8.314z"/>
	<path d="M18.7959,24.0098H5.0562c-0.6343,0-1.1504-0.5205-1.1504-1.1611V5.1753c0-0.6426,0.5161-1.1655,1.1504-1.1655h11.0884
		c0.3818,0,0.5879,0.2031,0.7246,0.3374l2.7373,2.7007c0.1475,0.146,0.3428,0.3833,0.3428,0.7661v15.0347
		C19.9492,23.4893,19.4316,24.0098,18.7959,24.0098z M16.0928,4.9902L5.0562,5.0098c-0.0801,0-0.1504,0.0771-0.1504,0.1655v17.6733
		c0,0.0869,0.0688,0.1611,0.1504,0.1611h13.7397c0.083,0,0.1533-0.0742,0.1533-0.1611V7.814L16.167,5.0596
		C16.1396,5.0327,16.1182,5.0078,16.0928,4.9902z"/>
	<path d="M10.5288,13.0469c-1.3848,0-2.5117-1.127-2.5117-2.5117v-4.561c0-0.2764,0.2236-0.5,0.5-0.5s0.5,0.2236,0.5,0.5v4.561
		c0,0.8335,0.6782,1.5117,1.5117,1.5117c0.834,0,1.5122-0.6782,1.5122-1.5117V2.0386c0-0.5562-0.4526-1.0083-1.0093-1.0088
		c-0.5562,0-1.0088,0.4526-1.0088,1.0093v2.4707c0,0.2764-0.2236,0.5-0.5,0.5s-0.5-0.2236-0.5-0.5V2.0391
		c0-1.1079,0.9014-2.0093,2.0093-2.0093c1.1074,0.0005,2.0088,0.9019,2.0088,2.0088v8.4966
		C13.041,11.9199,11.9141,13.0469,10.5288,13.0469z"/>
</g>
<rect y="0.0001" fill="none" width="24" height="24"/>
</svg>
