<svg xmlns="http://www.w3.org/2000/svg" xmlns:xlink="http://www.w3.org/1999/xlink" viewBox="0 0 302.72 265.04"><defs><style>.a,.b,.bk,.bp,.cp,.h{fill:none;}.a{clip-rule:evenodd;}.c{clip-path:url(#a);}.d{clip-path:url(#b);}.e{fill:#122e50;}.f{clip-path:url(#c);}.g{fill:#6e6f72;}.h{stroke:#9f9b7d;}.bk,.bp,.cp,.h{stroke-miterlimit:10;}.i{clip-path:url(#f);}.j{isolation:isolate;}.k{clip-path:url(#h);}.l{clip-path:url(#i);}.m{clip-path:url(#j);}.n{clip-path:url(#k);}.o{clip-path:url(#m);}.p{clip-path:url(#n);}.q{clip-path:url(#o);}.r{fill:#fff;}.s{clip-path:url(#p);}.t{clip-path:url(#r);}.u{clip-path:url(#s);}.v{clip-path:url(#t);}.w{clip-path:url(#u);}.x{clip-path:url(#w);}.y{clip-path:url(#x);}.z{clip-path:url(#y);}.aa{clip-path:url(#z);}.ab{clip-path:url(#ab);}.ac{clip-path:url(#ad);}.ad{fill:#cfcdbe;}.ae{clip-path:url(#af);}.af{clip-path:url(#ah);}.ag{clip-path:url(#aj);}.ah{clip-path:url(#al);}.ai{clip-path:url(#an);}.aj{clip-path:url(#ap);}.ak{clip-path:url(#ar);}.al{clip-path:url(#at);}.am{clip-path:url(#av);}.an{clip-path:url(#aw);}.ao{clip-path:url(#ax);}.ap{clip-path:url(#ay);}.aq{clip-path:url(#bd);}.ar{clip-path:url(#bf);}.as{fill:#726e5a;}.at{clip-path:url(#bj);}.au{clip-path:url(#bk);}.av{clip-path:url(#bm);}.aw{clip-path:url(#bo);}.ax{clip-path:url(#bq);}.ay{clip-path:url(#bs);}.az{clip-path:url(#bu);}.ba{clip-path:url(#bw);}.bb{clip-path:url(#by);}.bc{clip-path:url(#ca);}.bd{fill:#b2b2a5;}.be{clip-path:url(#cc);}.bf{fill:#c8cacb;}.bg{clip-path:url(#ce);}.bh{clip-path:url(#cg);}.bi{clip-path:url(#ci);}.bj{clip-path:url(#ck);}.bk{stroke:#122e50;}.bl{clip-path:url(#cn);}.bm{clip-path:url(#cp);}.bn{clip-path:url(#cr);}.bo{clip-path:url(#ct);}.bp,.cp{stroke:#fff;}.bp{stroke-width:3px;}.bq{clip-path:url(#cw);}.br{clip-path:url(#cy);}.bs{clip-path:url(#da);}.bt{clip-path:url(#dc);}.bu{clip-path:url(#de);}.bv{clip-path:url(#dg);}.bw{clip-path:url(#di);}.bx{clip-path:url(#dk);}.by{clip-path:url(#dm);}.bz{clip-path:url(#do);}.ca{clip-path:url(#dq);}.cb{clip-path:url(#ds);}.cc{clip-path:url(#du);}.cd{clip-path:url(#dw);}.ce{clip-path:url(#dy);}.cf{clip-path:url(#ea);}.cg{clip-path:url(#ec);}.ch{clip-path:url(#ee);}.ci{clip-path:url(#eg);}.cj{clip-path:url(#ei);}.ck{clip-path:url(#ek);}.cl{clip-path:url(#em);}.cm{clip-path:url(#eo);}.cn{clip-path:url(#eq);}.co{clip-path:url(#es);}.cq{clip-path:url(#ex);}.cr{clip-path:url(#ey);}.cs{clip-path:url(#fa);}.ct{clip-path:url(#fc);}.cu{clip-path:url(#fe);}.cv{clip-path:url(#fg);}</style><clipPath id="a" transform="translate(1.36 -17.52)"><path class="a" d="M148.44,19.94C76.06,19.94,17.38,78.19,17.38,150s58.68,130.1,131.06,130.1S279.5,221.9,279.5,150,220.82,19.94,148.44,19.94"/></clipPath><clipPath id="b" transform="translate(1.36 -17.52)"><rect class="b" x="5.41" y="4.93" width="290.14" height="290.14"/></clipPath><clipPath id="c" transform="translate(1.36 -17.52)"><path class="a" d="M148.44,57.73c-51.36,0-93,41.33-93,92.31s41.63,92.31,93,92.31,93-41.33,93-92.31-41.63-92.31-93-92.31"/></clipPath><clipPath id="f" transform="translate(1.36 -17.52)"><path class="a" d="M59.29,173.58A91.82,91.82,0,0,1,56.23,150c0-51,41.63-92.31,93-92.31s93,41.33,93,92.31a91.82,91.82,0,0,1-3.06,23.58Z"/></clipPath><clipPath id="h" transform="translate(1.36 -17.52)"><rect class="b" x="1.06" y="22.34" width="298.36" height="151.36"/></clipPath><clipPath id="i" transform="translate(1.36 -17.52)"><path class="a" d="M1.06,173.58C1.06,90.1,67.74,22.43,150,22.43S298.94,90.1,298.94,173.58Z"/></clipPath><clipPath id="j" transform="translate(1.36 -17.52)"><rect class="b" x="56.19" y="57.64" width="186.17" height="116.06"/></clipPath><clipPath id="k" transform="translate(1.36 -17.52)"><path class="a" d="M59.61,174.76A91.77,91.77,0,0,1,56.23,150c0-51,41.63-92.31,93-92.31s93,41.33,93,92.31a91.77,91.77,0,0,1-3.38,24.76Z"/></clipPath><clipPath id="m" transform="translate(1.36 -17.52)"><rect class="b" x="5.41" y="28.14" width="289.66" height="147"/></clipPath><clipPath id="n" transform="translate(1.36 -17.52)"><polygon class="a" points="293.89 153.08 291.77 141.11 161.46 169.07 288.39 128.61 284.2 117.18 160.77 167.18 278.69 105.45 272.57 94.92 159.75 165.44 265.09 84.32 257.22 75.01 158.46 163.9 248 65.85 238.62 58.04 156.9 162.61 227.93 50.62 217.33 44.54 155.15 161.6 205.51 39.07 194.01 34.91 153.25 160.92 181.41 31.56 169.35 29.45 151.25 160.57 156.36 28.32 144.12 28.32 149.23 160.57 131.13 29.45 119.07 31.56 147.23 160.92 106.47 34.91 94.97 39.06 145.33 161.61 83.14 44.54 72.54 50.62 143.58 162.61 61.86 58.04 52.48 65.85 142.03 163.9 43.26 75.01 35.39 84.32 140.72 165.44 27.91 94.92 21.79 105.45 139.71 167.18 16.28 117.18 12.09 128.61 139.03 169.07 8.71 141.11 6.59 153.08 138.64 171.05 5.45 165.98 5.45 174.76 94 174.76 138.66 173.06 126.16 174.76 174.3 174.76 161.8 173.06 206.48 174.76 295.03 174.76 295.03 165.98 161.81 171.05 293.89 153.08"/></clipPath><clipPath id="o" transform="translate(1.36 -17.52)"><rect class="b" x="56.19" y="57.64" width="186.17" height="117.51"/></clipPath><clipPath id="p" transform="translate(1.36 -17.52)"><path class="a" d="M59.37,173.87a93.2,93.2,0,0,0,179.7,0Z"/></clipPath><clipPath id="r" transform="translate(1.36 -17.52)"><rect class="b" x="1.06" y="173.69" width="298.36" height="72.54"/></clipPath><clipPath id="s" transform="translate(1.36 -17.52)"><path class="a" d="M1.06,173.87c0,39.77,66.68,72,148.94,72s148.94-32.24,148.94-72Z"/></clipPath><clipPath id="t" transform="translate(1.36 -17.52)"><rect class="b" x="59.09" y="173.69" width="180.37" height="68.67"/></clipPath><clipPath id="u" transform="translate(1.36 -17.52)"><path class="a" d="M59.22,173.31a93.2,93.2,0,0,0,180,0Z"/></clipPath><clipPath id="w" transform="translate(1.36 -17.52)"><rect class="b" x="5.41" y="173.21" width="289.66" height="70.12"/></clipPath><clipPath id="x" transform="translate(1.36 -17.52)"><polygon class="a" points="293.89 183.64 291.77 189.34 161.46 176.02 288.39 195.3 284.2 200.74 160.77 176.92 278.69 206.33 272.57 211.34 159.75 177.75 265.09 216.4 257.22 220.83 158.46 178.49 248 225.19 238.62 228.91 156.9 179.1 227.93 232.45 217.33 235.35 155.15 179.58 205.51 237.96 194.01 239.94 153.25 179.91 181.41 241.53 169.35 242.53 151.25 180.07 156.36 243.07 144.12 243.07 149.23 180.07 131.13 242.54 119.07 241.53 147.23 179.91 106.47 239.94 94.97 237.96 145.33 179.57 83.14 235.35 72.54 232.45 143.58 179.1 61.86 228.91 52.48 225.19 142.03 178.48 43.26 220.83 35.39 216.4 140.72 177.75 27.91 211.34 21.79 206.33 139.71 176.92 16.28 200.74 12.09 195.3 139.03 176.02 8.71 189.34 6.59 183.64 138.64 175.08 5.45 177.5 5.45 173.31 94 173.31 138.66 174.12 126.16 173.31 174.3 173.31 161.8 174.12 206.48 173.31 295.03 173.31 295.03 177.5 161.81 175.08 293.89 183.64"/></clipPath><clipPath id="y" transform="translate(1.36 -17.52)"><rect class="b" x="59.09" y="173.21" width="180.37" height="69.15"/></clipPath><clipPath id="z" transform="translate(1.36 -17.52)"><path class="a" d="M148.61,242.08a112.83,112.83,0,0,1-33.83-5.16l-1.67-.52.33-112.21h69.93l.37,112.33-1.68.52A112.78,112.78,0,0,1,148.61,242.08Z"/></clipPath><clipPath id="ab" transform="translate(1.36 -17.52)"><path class="a" d="M181,126.55l.36,108.23a111,111,0,0,1-65.86-.11l.32-108.12Zm4.75-4.73H111.07v4.71l-.32,108.12v3.47l3.33,1a115.86,115.86,0,0,0,68.72.12l3.35-1v-3.49l-.36-108.23Z"/></clipPath><clipPath id="ad" transform="translate(1.36 -17.52)"><path class="a" d="M115.77,140.68l-.06,17.22c9-3.29,13.81-13.9,15.75-19.53l-9.66-1.72Z"/></clipPath><clipPath id="af" transform="translate(1.36 -17.52)"><path class="a" d="M176.35,137.82l-7.9,1.72c.65,2.48,3.86,12.63,12.67,15.9l-.05-13.7Z"/></clipPath><clipPath id="ah" transform="translate(1.36 -17.52)"><path class="a" d="M122.21,144.53A4,4,0,0,0,119.1,146l.05,0a4,4,0,0,1,1.85-.46,4.11,4.11,0,0,1,4.1,4.12v89.1c.4.09.81.19,1.22.27V148.65a4.11,4.11,0,0,0-4.1-4.12"/></clipPath><clipPath id="aj" transform="translate(1.36 -17.52)"><path class="a" d="M132.51,144.53A4,4,0,0,0,129.4,146l.05,0a4,4,0,0,1,1.85-.46,4.11,4.11,0,0,1,4.1,4.12v90.83l1.22.15v-92a4.11,4.11,0,0,0-4.1-4.12"/></clipPath><clipPath id="al" transform="translate(1.36 -17.52)"><path class="a" d="M142.81,144.53A4,4,0,0,0,139.7,146l.05,0a4,4,0,0,1,1.85-.46,4.11,4.11,0,0,1,4.1,4.12v91.57l1.22,0v-92.6a4.11,4.11,0,0,0-4.1-4.12"/></clipPath><clipPath id="an" transform="translate(1.36 -17.52)"><path class="a" d="M153.11,144.53A4,4,0,0,0,150,146l.05,0a4,4,0,0,1,1.85-.46,4.11,4.11,0,0,1,4.1,4.12V241l1.22-.07V148.65a4.11,4.11,0,0,0-4.1-4.12"/></clipPath><clipPath id="ap" transform="translate(1.36 -17.52)"><path class="a" d="M163.41,144.53A4,4,0,0,0,160.3,146l.05,0a4,4,0,0,1,1.85-.46,4.11,4.11,0,0,1,4.1,4.12v90.21l1.22-.19v-91a4.11,4.11,0,0,0-4.1-4.12"/></clipPath><clipPath id="ar" transform="translate(1.36 -17.52)"><path class="a" d="M173.71,144.53A4,4,0,0,0,170.6,146l.05,0a4,4,0,0,1,1.84-.46,4.11,4.11,0,0,1,4.1,4.12v88l1.22-.31V148.65a4.11,4.11,0,0,0-4.1-4.12"/></clipPath><clipPath id="at" transform="translate(1.36 -17.52)"><rect class="b" x="1.06" y="19.94" width="297.88" height="260.2"/></clipPath><clipPath id="av" transform="translate(1.36 -17.52)"><rect class="b" x="123.89" y="125.34" width="48.84" height="12.57"/></clipPath><clipPath id="aw" transform="translate(1.36 -17.52)"><rect class="b" x="123.95" y="125.55" width="48.49" height="12.23"/></clipPath><clipPath id="ax" transform="translate(1.36 -17.52)"><rect class="b" x="17.02" y="19.92" width="262.58" height="260.64"/></clipPath><clipPath id="ay" transform="translate(1.36 -17.52)"><rect class="b" x="123.95" y="125.55" width="48.49" height="12.23"/></clipPath><clipPath id="bd" transform="translate(1.36 -17.52)"><rect class="b" x="120.17" y="137.42" width="57.58" height="3.18"/></clipPath><clipPath id="bf" transform="translate(1.36 -17.52)"><path class="a" d="M176.27,125.15c.82,0,1.48.29,1.48.65s-.66.64-1.48.64H121.64c-.82,0-1.48-.29-1.48-.64s.66-.65,1.48-.65Z"/></clipPath><clipPath id="bj" transform="translate(1.36 -17.52)"><rect class="b" x="82.3" y="96.81" width="133.46" height="58.51"/></clipPath><clipPath id="bk" transform="translate(1.36 -17.52)"><rect class="b" x="97.8" y="99.36" width="101.04" height="7.95"/></clipPath><clipPath id="bm" transform="translate(1.36 -17.52)"><path class="a" d="M100.18,104.94h96.28v-3.22H100.18Zm101-7.95H95.42v12.67h105.8V97Z"/></clipPath><clipPath id="bo" transform="translate(1.36 -17.52)"><path class="a" d="M198.34,107.8a16.41,16.41,0,0,0-5.4-.83H104.15c-4.34,0-7.73,1.84-10.61,3.78-7.34,4.93-10.52,13.57-10.4,20.63.17,9.83,6.77,13.94,6.77,13.94s-7.28-7.16-3.86-20.47c2.63-10.27,11.69-14.33,15.76-15.56a6.26,6.26,0,0,1,2.09-.29h88.54a18.6,18.6,0,0,1,13.17,5.58,25.28,25.28,0,0,1,6,13.24c1.53,17-11.93,21.84-11.93,21.84,16-4.32,13.46-22,13.46-22-1.38-13.19-9.27-18.12-14.75-19.85"/></clipPath><clipPath id="bq" transform="translate(1.36 -17.52)"><path class="a" d="M196.58,140l-.34.18.34-.18"/></clipPath><clipPath id="bs" transform="translate(1.36 -17.52)"><path class="a" d="M197,120.36a17,17,0,0,0-14.66-.68,12.76,12.76,0,0,0-7.6,9.15c-2.08,7.82,3.14,14.54,3.14,14.54-4.84-10.06-1-18.77,4.83-21.94a13.63,13.63,0,0,1,13.15.28c2.16,1.24,5.93,4.35,5.58,9.1-.45,6.18-3.84,8.62-4.89,9.23a10.85,10.85,0,0,0,6.14-9.79,11.35,11.35,0,0,0-5.69-9.89"/></clipPath><clipPath id="bu" transform="translate(1.36 -17.52)"><path class="a" d="M189,126.35a4.65,4.65,0,0,0-4.67,3.76,5.05,5.05,0,0,1,4.68-2.59,5.43,5.43,0,0,1,4.65,2.5,4.68,4.68,0,0,0-4.66-3.68"/></clipPath><clipPath id="bw" transform="translate(1.36 -17.52)"><path class="a" d="M100.74,140.25c-.16-.08-.3-.17-.46-.25a5.11,5.11,0,0,0,.46.25"/></clipPath><clipPath id="by" transform="translate(1.36 -17.52)"><path class="a" d="M108,126.35a4.67,4.67,0,0,0-4.66,3.68,5.43,5.43,0,0,1,4.65-2.5,5.06,5.06,0,0,1,4.68,2.59,4.65,4.65,0,0,0-4.67-3.76"/></clipPath><clipPath id="ca" transform="translate(1.36 -17.52)"><path class="a" d="M107,153.74a27.52,27.52,0,0,1-20.69-6.07c5.38,5.81,12.9,7,16,7.1,10.68.26,16.52-3.76,19.71-8.38-3.91,4.7-9.69,6.77-15.07,7.35"/></clipPath><clipPath id="cc" transform="translate(1.36 -17.52)"><path class="a" d="M106.94,144.23c-7.16.8-12.53-4.43-12.81-4.7a13.85,13.85,0,0,0,8.86,5.17,15.33,15.33,0,0,0,6.24-.34l.31-.09a9.75,9.75,0,0,0,6.87-7.81v-.15c-.66,2.14-2.1,7.09-9.47,7.91"/></clipPath><clipPath id="ce" transform="translate(1.36 -17.52)"><path class="a" d="M111,136.07a5.07,5.07,0,0,1-2.46.91c-4.59.6-6.46-3.62-6.46-3.62h0a5.7,5.7,0,0,0,3.72,3.77,5.89,5.89,0,0,0,4.64-.34,5.6,5.6,0,0,0,2.26-2.23,7.58,7.58,0,0,0,.66-2.06v0a5.12,5.12,0,0,1-2.36,3.57"/></clipPath><clipPath id="cg" transform="translate(1.36 -17.52)"><path class="a" d="M189.9,153.74c-5.38-.59-11.16-2.66-15.07-7.35,3.19,4.63,9,8.64,19.71,8.38,3.15-.08,10.67-1.29,16-7.1a27.5,27.5,0,0,1-20.69,6.07"/></clipPath><clipPath id="ci" transform="translate(1.36 -17.52)"><path class="a" d="M190,144.23c-7.36-.83-8.8-5.77-9.46-7.91v.15a9.76,9.76,0,0,0,6.87,7.81l.31.09a15.32,15.32,0,0,0,6.24.34,13.85,13.85,0,0,0,8.86-5.17c-.28.26-5.65,5.5-12.81,4.7"/></clipPath><clipPath id="ck" transform="translate(1.36 -17.52)"><path class="a" d="M188.38,137a5.07,5.07,0,0,1-2.46-.91,5.12,5.12,0,0,1-2.36-3.57v0a7.44,7.44,0,0,0,.67,2.06,5.61,5.61,0,0,0,2.26,2.23,5.89,5.89,0,0,0,4.64.34,5.71,5.71,0,0,0,3.72-3.77h0s-1.88,4.21-6.46,3.62"/></clipPath><clipPath id="cn" transform="translate(1.36 -17.52)"><path class="a" d="M118.43,114.39c-.91,0-1.64,2.81-1.64,6.28s.73,6.27,1.64,6.27h60.69c.91,0,1.64-2.81,1.64-6.27s-.73-6.28-1.64-6.28Z"/></clipPath><clipPath id="cp" transform="translate(1.36 -17.52)"><rect class="b" x="116.79" y="114.43" width="63.97" height="12.5"/></clipPath><clipPath id="cr" transform="translate(1.36 -17.52)"><path class="a" d="M196.79,104.94c3.56.94,10.24,5.34,15,11.63,5.8,7.69,3.53,17.62,3.17,19.61-2.87,15.93-15.66,17.89-20.27,18-21.85.53-22.67-16.43-22.71-20.27a18.49,18.49,0,0,1,9.51-16.17c-2.07.48-5.9,1.53-5.9,1.53-11.19,6.59-24.36,5.51-27.07,5.3-2.71.21-15.92,1.37-27.11-5.22,0,0-4.4-1.38-6.19-1.9a21.43,21.43,0,0,1,9.44,17.49c0,3.84-.12,19.27-22,18.74-4.61-.11-17.91-1.56-20.79-17.49-.36-2-2.12-12.07,3.69-19.76C90.43,110,97,105.78,100.48,104.93Z"/></clipPath><clipPath id="ct" transform="translate(1.36 -17.52)"><path class="a" d="M211.9,115.38a30.12,30.12,0,0,0-15.14-10.44H100.44A29.86,29.86,0,0,0,85,115.38c-5.8,7.69-4.5,18.8-4.14,20.79,2.87,15.93,16.91,18.48,21.52,18.59,21.85.53,23.47-16.84,23.51-20.69.07-8-3.74-12.73-8.15-15.4A15.56,15.56,0,0,1,121,120.1c10.49,6.14,24.84,6,27.56,5.75,2.71.21,16.28.49,27-5.75a15,15,0,0,1,3.88-1.58c-4.53,2.62-8.49,7.43-8.42,15.56,0,3.84,1.66,21.22,23.5,20.69,4.61-.11,18.65-2.66,21.52-18.59.36-2,1.66-13.11-4.14-20.79m.18,20.23c-2.61,14.11-16.84,15.17-18.48,15.17-16.78,0-18.53-13.65-18.44-16.87.33-11.27,9.33-14.41,13.29-14.35,13.07.19,13.4,10.79,13.4,10.79.53,5.09-3.91,10.31-9.23,11.17a10,10,0,0,1-5-.45h0c-4.33-1.67-5.93-6.59-4.08-10.77l.21-.48a6.38,6.38,0,0,0,.5,4.75,5.61,5.61,0,0,0,2.26,2.23,5.75,5.75,0,0,0,4.57.28,6,6,0,0,0,4.06-4.58l0-.18a6.47,6.47,0,0,0-.33-3.47c-1.18-3.27-4.53-4.6-8.3-3.6l-.77.25a9,9,0,0,0-4.31,3.89c-2.2,4.15-1.54,12.51,6,14.89l.3.09a13.3,13.3,0,0,0,6.24.34c7.34-1.2,11.91-7.23,11.91-14.4,0,0-.36-10.32-10.29-13.56-3.88-1.63-10.36-3.08-18.6-.14-.71.21-1.42.45-2.12.73-7.21,2.9-17.82,4.7-26.64,4.67s-19.27-1.81-26.44-4.67c-.74-.29-1.53-.52-2.27-.8a23.46,23.46,0,0,0-20.82,1.38c-7.29,4-7.59,12.38-7.59,12.38,0,7.17,4.57,13.2,11.91,14.4a15.3,15.3,0,0,0,6.24-.34l.31-.09c7.51-2.37,8.17-10.73,6-14.89a8.94,8.94,0,0,0-4.31-3.89l-.77-.25c-3.76-1-7.11.33-8.29,3.6a6.44,6.44,0,0,0-.33,3.47l0,.18a6,6,0,0,0,4.06,4.58,5.74,5.74,0,0,0,4.57-.28,5.59,5.59,0,0,0,2.26-2.23,6.35,6.35,0,0,0,.5-4.75l.21.48c1.85,4.18.25,9.1-4.08,10.77h0a10,10,0,0,1-5,.45c-5.31-.86-9.75-6.09-9.23-11.17,0,0,.33-10.6,13.4-10.79,4-.06,13,3.08,13.29,14.35.09,3.22-1.66,16.9-18.44,16.87-1.64,0-15.87-1.06-18.48-15.17-.37-2-1.8-11.61,4.23-18.82a27.15,27.15,0,0,1,14.84-9H193a27.15,27.15,0,0,1,14.84,9c6,7.2,4.59,16.82,4.23,18.82m-27.25-6.84a4.72,4.72,0,0,1,2.06-1.92,4.63,4.63,0,0,1,1.62-.46,4.86,4.86,0,0,1,4.82,2.88,4.81,4.81,0,0,1,.36,2.46l0,.19a4.8,4.8,0,0,1-4.56,4.07,4.85,4.85,0,0,1-4.11-2.12,4.69,4.69,0,0,1-.17-5.11m-72.9,5.11a4.85,4.85,0,0,1-4.11,2.12,4.8,4.8,0,0,1-4.56-4.07l0-.19a4.81,4.81,0,0,1,.36-2.46,4.86,4.86,0,0,1,4.82-2.88,4.63,4.63,0,0,1,1.62.46,4.82,4.82,0,0,1,1.9,7"/></clipPath><clipPath id="cw" transform="translate(1.36 -17.52)"><polygon class="a" points="38.18 152.96 34.03 156.13 35.78 151.23 31.46 148.29 36.7 148.43 38.18 143.44 39.67 148.43 44.91 148.29 40.58 151.23 42.34 156.13 38.18 152.96"/></clipPath><clipPath id="cy" transform="translate(1.36 -17.52)"><polygon class="a" points="258.69 152.96 254.54 156.13 256.29 151.23 251.97 148.29 257.21 148.43 258.69 143.44 260.18 148.43 265.42 148.29 261.1 151.23 262.85 156.13 258.69 152.96"/></clipPath><clipPath id="da" transform="translate(1.36 -17.52)"><polygon class="a" points="36.56 120.82 35.3 126.48 38.03 127.08 39.02 122.6 41.3 123.1 40.3 127.58 45.07 128.62 44.42 131.57 32.23 128.89 34.15 120.29 36.56 120.82"/></clipPath><clipPath id="dc" transform="translate(1.36 -17.52)"><path class="a" d="M43.3,116.25,48,117.86l-1,2.76-11.79-4.07,1.8-5.14a6.91,6.91,0,0,1,1.13-2.17,3.14,3.14,0,0,1,1.72-1,3.83,3.83,0,0,1,2.17.12,3.3,3.3,0,0,1,2.33,3.08l6-.36-1.06,3-5.3.18Zm-5-1.73,3,1,.59-1.68a4.68,4.68,0,0,0,.3-1.24,1.39,1.39,0,0,0-.29-.84,1.61,1.61,0,0,0-.82-.61,1.52,1.52,0,0,0-1,0,1.28,1.28,0,0,0-.7.47,6.23,6.23,0,0,0-.54,1.26Z"/></clipPath><clipPath id="de" transform="translate(1.36 -17.52)"><polygon class="a" points="46.42 95.94 43.81 101.24 46.12 102.35 48.16 98.18 50.27 99.2 48.23 103.37 50.68 104.56 53.28 99.25 55.5 100.33 51.6 108.28 40.38 102.86 44.28 94.9 46.42 95.94"/></clipPath><clipPath id="dg" transform="translate(1.36 -17.52)"><polygon class="a" points="53.07 85.16 49.9 90.15 52.06 91.5 54.56 87.58 56.55 88.83 54.05 92.75 56.35 94.19 59.53 89.21 61.62 90.52 56.86 98 46.3 91.38 51.06 83.9 53.07 85.16"/></clipPath><clipPath id="di" transform="translate(1.36 -17.52)"><path class="a" d="M53.49,80.54l2.39-2.94a7.28,7.28,0,0,1,2.68-2.28A6.06,6.06,0,0,1,61.44,75a6.37,6.37,0,0,1,3.31,1.5,6.47,6.47,0,0,1,2.49,4A5.44,5.44,0,0,1,65.89,85l-2.7,3.31Zm3.59-.78,6.09,4.89.76-.93a2.6,2.6,0,0,0,.56-2.57,5.33,5.33,0,0,0-3.6-3.32,2.94,2.94,0,0,0-1.74,0,3,3,0,0,0-1.29,1Z"/></clipPath><clipPath id="dk" transform="translate(1.36 -17.52)"><path class="a" d="M75.09,75.26A4.56,4.56,0,0,1,71,76.6a7.58,7.58,0,0,1-4.18-2.32,7.22,7.22,0,0,1-2.17-4.22A4.67,4.67,0,0,1,66.22,66a4.48,4.48,0,0,1,4.19-1.33A7.74,7.74,0,0,1,74.47,67a7.45,7.45,0,0,1,2.2,4.21,4.6,4.6,0,0,1-1.58,4.09m-7.22-7.53Q66.22,69.32,69,72.2t4.47,1.3q1.6-1.54-1.21-4.42t-4.42-1.35"/></clipPath><clipPath id="dm" transform="translate(1.36 -17.52)"><polygon class="a" points="85.37 66.33 76.9 59.95 82.88 68.12 80.9 69.55 73.56 59.53 77.25 56.87 83.41 61.59 80.89 54.25 84.58 51.59 91.91 61.61 89.53 63.33 83.55 55.15 86.99 65.16 85.37 66.33"/></clipPath><clipPath id="do" transform="translate(1.36 -17.52)"><path class="a" d="M104.28,55.39a4.57,4.57,0,0,1-4.33-.09,7.52,7.52,0,0,1-3.17-3.55,7.19,7.19,0,0,1-.64-4.69A4.69,4.69,0,0,1,99,43.76a4.48,4.48,0,0,1,4.4.12,7.71,7.71,0,0,1,3.08,3.47,7.41,7.41,0,0,1,.67,4.7,4.63,4.63,0,0,1-2.85,3.34M100,45.91q-2.09,1-.4,4.6t3.78,2.69q2-.92.33-4.57T100,45.91"/></clipPath><clipPath id="dq" transform="translate(1.36 -17.52)"><polygon class="a" points="117.09 39.84 111.54 41.64 112.41 44.28 116.79 42.85 117.52 45.05 113.13 46.48 114.65 51.08 111.77 52.02 107.88 40.25 116.32 37.51 117.09 39.84"/></clipPath><clipPath id="ds" transform="translate(1.36 -17.52)"><polygon class="a" points="129.07 34.78 131.25 46.98 128.38 47.49 126.2 35.29 129.07 34.78"/></clipPath><clipPath id="du" transform="translate(1.36 -17.52)"><path class="a" d="M143.26,33.24l1,12.35-2.49.21-5.57-7.94q0,.32.05.42a4.72,4.72,0,0,1,.08.53l.62,7.39-2.27.19-1-12.35,3.14-.26,4.84,6.93q-.1-.54-.12-.82L141,33.43Z"/></clipPath><clipPath id="dw" transform="translate(1.36 -17.52)"><polygon class="a" points="156.94 35.88 151.1 35.7 151.01 38.48 155.63 38.62 155.56 40.93 150.94 40.79 150.8 45.63 147.76 45.54 148.14 33.16 157.01 33.43 156.94 35.88"/></clipPath><clipPath id="dy" transform="translate(1.36 -17.52)"><path class="a" d="M163.55,46.87A4.55,4.55,0,0,1,160,44.46a7.47,7.47,0,0,1-.71-4.69,7.21,7.21,0,0,1,2-4.29,4.74,4.74,0,0,1,4.2-1.23,4.46,4.46,0,0,1,3.62,2.48,7.65,7.65,0,0,1,.68,4.58,7.45,7.45,0,0,1-2,4.31,4.68,4.68,0,0,1-4.23,1.27m1.57-10.28q-2.28-.33-2.85,3.65t1.7,4.3q2.2.31,2.78-3.66t-1.63-4.29"/></clipPath><clipPath id="ea" transform="translate(1.36 -17.52)"><path class="a" d="M175.82,44.08l-1.31,4.74L171.68,48,175,36.09l5.29,1.44a6.94,6.94,0,0,1,2.26,1,3.1,3.1,0,0,1,1.13,1.64,3.74,3.74,0,0,1,0,2.16,3.32,3.32,0,0,1-2.94,2.52l.76,5.89-3.12-.85-.54-5.24Zm1.4-5.09-.84,3,1.73.47a4.75,4.75,0,0,0,1.26.22,1.41,1.41,0,0,0,.83-.34,1.59,1.59,0,0,0,.56-.85,1.49,1.49,0,0,0-.05-1,1.27,1.27,0,0,0-.52-.66,6.34,6.34,0,0,0-1.3-.45Z"/></clipPath><clipPath id="ec" transform="translate(1.36 -17.52)"><polygon class="a" points="189.44 53.79 190.68 43.31 186.62 52.57 184.37 51.6 189.36 40.24 193.53 42.05 192.55 49.72 197.65 43.83 201.83 45.64 196.85 57 194.15 55.83 198.22 46.57 191.27 54.59 189.44 53.79"/></clipPath><clipPath id="ee" transform="translate(1.36 -17.52)"><path class="a" d="M211.52,51.31,208.33,63.9l-2.68-1.63.69-2.57-3.44-2.09-2,1.77L198.7,58l9.93-8.49ZM204.7,56,207,57.39,208.12,53Z"/></clipPath><clipPath id="eg" transform="translate(1.36 -17.52)"><polygon class="a" points="223.25 59.62 221.76 61.57 219.29 59.72 213.26 67.65 210.9 65.88 216.93 57.95 214.45 56.09 215.94 54.13 223.25 59.62"/></clipPath><clipPath id="ei" transform="translate(1.36 -17.52)"><polygon class="a" points="227.91 63.72 219.63 72.98 217.45 71.06 225.73 61.79 227.91 63.72"/></clipPath><clipPath id="ek" transform="translate(1.36 -17.52)"><path class="a" d="M225.33,78.83A4.49,4.49,0,0,1,224,74.73a7.49,7.49,0,0,1,2.4-4.11,7.31,7.31,0,0,1,4.28-2.09,4.73,4.73,0,0,1,4.06,1.64A4.41,4.41,0,0,1,236,74.35a7.68,7.68,0,0,1-2.35,4,7.54,7.54,0,0,1-4.28,2.12,4.67,4.67,0,0,1-4.1-1.63m7.7-7.06q-1.57-1.66-4.52,1.08t-1.38,4.42q1.52,1.61,4.47-1.13T233,71.78"/></clipPath><clipPath id="em" transform="translate(1.36 -17.52)"><path class="a" d="M246.68,85.17l-10.07,7.31-1.47-2,3.92-8.85-.33.26a4.44,4.44,0,0,1-.41.35l-6,4.38-1.34-1.82L241,77.48,242.87,80l-3.43,7.72q.41-.37.64-.53l5.27-3.83Z"/></clipPath><clipPath id="eo" transform="translate(1.36 -17.52)"><path class="a" d="M255.29,100.38l-9.48,8.94-1.38-2.8,2-1.81-1.78-3.6-2.65.43-1.13-2.28,13-1.9Zm-8.3.35,1.16,2.36,3.35-3.08Z"/></clipPath><clipPath id="eq" transform="translate(1.36 -17.52)"><path class="a" d="M257.25,117.89l-1.2-2.8q2.47-.94,1.8-2.81-.76-2.14-4.6-.79a5.72,5.72,0,0,0-2.79,1.64,2,2,0,0,0-.2,1.91q.61,1.7,3,1.29L254,119a5.24,5.24,0,0,1-5.75-7.57,6.77,6.77,0,0,1,3.94-3,7,7,0,0,1,4.86-.13,5,5,0,0,1,3.07,3.23q1.5,4.21-2.86,6.34"/></clipPath><clipPath id="es" transform="translate(1.36 -17.52)"><polygon class="a" points="264.47 127.84 262.06 128.4 261.35 125.42 251.61 127.7 250.93 124.84 260.67 122.55 259.95 119.55 262.36 118.99 264.47 127.84"/></clipPath><clipPath id="ex" transform="translate(1.36 -17.52)"><rect class="b" x="122.44" y="249.61" width="51.74" height="21.76"/></clipPath><clipPath id="ey" transform="translate(1.36 -17.52)"><rect class="b" x="122.61" y="250.01" width="51.1" height="21.17"/></clipPath><clipPath id="fa" transform="translate(1.36 -17.52)"><path class="a" d="M129.23,259.9l.19-1.85a5.25,5.25,0,0,0,3.25-1.53l1.54.15-.75,7.5,2.51.25-.16,1.65-7.36-.72.17-1.65,2.75.27.51-5.16a20.19,20.19,0,0,1-2.66,1.1"/></clipPath><clipPath id="fc" transform="translate(1.36 -17.52)"><path class="a" d="M141.66,263.91a1.18,1.18,0,0,0,1.19,1,1.39,1.39,0,0,0,1.09-.49,4.11,4.11,0,0,0,.53-2.37,2.53,2.53,0,0,1-2.06.89,2.78,2.78,0,0,1-2-.81,2.66,2.66,0,0,1-.75-2,2.83,2.83,0,0,1,1-2.16,3.46,3.46,0,0,1,2.46-.78,3.61,3.61,0,0,1,1.91.54,3.14,3.14,0,0,1,1.22,1.62,6.54,6.54,0,0,1,.38,2.46,5.9,5.9,0,0,1-1,3.4,3.19,3.19,0,0,1-2.85,1.32,2.77,2.77,0,0,1-2.94-2.27Zm1.43-5.26a1.27,1.27,0,0,0-1,.4,1.38,1.38,0,0,0-.41,1,1.41,1.41,0,0,0,.34,1,1.24,1.24,0,0,0,1,.43,1.29,1.29,0,0,0,1-.4,1.38,1.38,0,0,0,.41-.95,1.36,1.36,0,0,0-.36-1A1.26,1.26,0,0,0,143.09,258.66Z"/></clipPath><clipPath id="fe" transform="translate(1.36 -17.52)"><path class="a" d="M157.36,259.23l-1.81.59q-.34-1.38-1.44-1.32-1.6.09-1.44,3.11a2.23,2.23,0,0,1,2-1.15,2.79,2.79,0,0,1,2.13.71,2.71,2.71,0,0,1,.91,1.91,3,3,0,0,1-.78,2.17,3.15,3.15,0,0,1-2.33,1,3.39,3.39,0,0,1-2.36-.62A3.75,3.75,0,0,1,151,264a7.1,7.1,0,0,1-.41-2,5.86,5.86,0,0,1,.76-3.48,3.62,3.62,0,0,1,4.92-.92,3,3,0,0,1,1.11,1.67m-3,5.56a1.32,1.32,0,0,0,.95-.44,1.48,1.48,0,0,0,.33-1.12,1.26,1.26,0,0,0-.47-1,1.37,1.37,0,0,0-1-.32,1.35,1.35,0,0,0-.94.45,1.37,1.37,0,0,0-.36,1.06,1.4,1.4,0,0,0,.44,1,1.31,1.31,0,0,0,1,.35"/></clipPath><clipPath id="fg" transform="translate(1.36 -17.52)"><path class="a" d="M168,258l-1.76.72q-.44-1.35-1.53-1.21-1.59.21-1.19,3.21a2.23,2.23,0,0,1,1.89-1.29,2.79,2.79,0,0,1,2.18.55,2.71,2.71,0,0,1,1.06,1.83A3,3,0,0,1,168,264a3.16,3.16,0,0,1-2.24,1.22,3.4,3.4,0,0,1-2.4-.44,3.77,3.77,0,0,1-1.38-1.62,7.12,7.12,0,0,1-.57-2,5.86,5.86,0,0,1,.49-3.53,3.61,3.61,0,0,1,4.83-1.29A3,3,0,0,1,168,258m-2.59,5.78a1.32,1.32,0,0,0,.91-.51,1.49,1.49,0,0,0,.24-1.14,1.27,1.27,0,0,0-.55-.93,1.38,1.38,0,0,0-1-.24,1.35,1.35,0,0,0-.9.52,1.37,1.37,0,0,0-.28,1.09,1.4,1.4,0,0,0,.51.95,1.31,1.31,0,0,0,1,.27"/></clipPath></defs><title>foia3</title><g class="c"><g class="d"><rect class="e" x="16.32" width="266.95" height="265.04"/></g></g><g class="f"><g class="d"><rect class="g" x="54.39" y="37.79" width="190.82" height="189.46"/></g></g><g class="d"><ellipse class="h" cx="149.79" cy="132.52" rx="92.99" ry="92.31"/></g><g class="i"><g class="d"><g class="j"><g class="k"><g class="l"><g class="m"><rect class="e" y="2.49" width="302.72" height="155.99"/></g></g></g></g></g></g><g class="n"><g class="d"><g class="j"><g class="o"><g class="p"><g class="q"><rect class="r" x="4.39" y="8.38" width="294.42" height="151.28"/></g></g></g></g></g></g><g class="s"><g class="d"><g class="j"><g class="t"><g class="u"><g class="v"><rect class="r" y="153.93" width="302.72" height="76.84"/></g></g></g></g></g></g><g class="w"><g class="d"><g class="j"><g class="x"><g class="y"><g class="z"><rect class="e" x="4.39" y="153.37" width="294.42" height="74.6"/></g></g></g></g></g></g><g class="aa"><g class="d"><rect class="r" x="112.05" y="104.24" width="75.47" height="122.73"/></g></g><g class="ab"><g class="d"><rect class="e" x="109.66" y="101.88" width="80.24" height="127.46"/></g></g><g class="ac"><g class="d"><rect class="ad" x="114.64" y="116.71" width="20.59" height="26.08"/></g></g><g class="ae"><g class="d"><rect class="ad" x="167.38" y="117.88" width="17.51" height="22.46"/></g></g><g class="af"><g class="d"><rect class="e" x="118.03" y="124.59" width="12.05" height="99.32"/></g></g><g class="ag"><g class="d"><rect class="e" x="128.34" y="124.59" width="12.05" height="100.93"/></g></g><g class="ah"><g class="d"><rect class="e" x="138.63" y="124.59" width="12.05" height="101.56"/></g></g><g class="ai"><g class="d"><rect class="e" x="148.94" y="124.59" width="12.05" height="101.31"/></g></g><g class="aj"><g class="d"><rect class="e" x="159.23" y="124.59" width="12.05" height="100.15"/></g></g><g class="ak"><g class="d"><rect class="e" x="169.54" y="124.59" width="12.05" height="97.97"/></g></g><g class="al"><g class="d"><g class="j"><g class="am"><g class="an"><g class="ao"><rect class="r" x="122.89" y="105.61" width="53.33" height="17.07"/></g></g></g></g></g></g><g class="ap"><g class="d"><g class="j"><g class="am"><g class="an"><g class="am"><rect class="r" x="122.89" y="105.61" width="53.33" height="17.07"/></g></g></g></g></g></g><g class="aq"><g class="d"><rect class="r" x="119.11" y="117.48" width="62.41" height="8.02"/></g></g><g class="ar"><g class="d"><rect class="as" x="119.11" y="105.21" width="62.41" height="6.12"/></g></g><g class="al"><g class="d"><g class="j"><g class="at"><g class="au"><g class="ao"><rect class="r" x="96.74" y="79.42" width="105.88" height="12.78"/></g></g><g class="av"><g class="ao"><rect class="e" x="94.36" y="77.05" width="110.64" height="17.51"/></g></g><g class="aw"><g class="ao"><rect class="r" x="82.08" y="87.02" width="134.93" height="47.54"/></g></g><g class="ax"><g class="ao"><rect class="r" x="195.18" y="120.1" width="5.18" height="5.02"/></g></g><g class="ay"><g class="ao"><rect class="r" x="173.2" y="98.39" width="33.28" height="29.88"/></g></g><g class="az"><g class="ao"><rect class="r" x="183.22" y="106.41" width="14.17" height="8.6"/></g></g><g class="ba"><g class="ao"><rect class="r" x="99.22" y="120.06" width="5.29" height="5.08"/></g></g><g class="bb"><g class="ao"><rect class="r" x="102.27" y="106.41" width="14.17" height="8.6"/></g></g><g class="bc"><g class="ao"><rect class="bd" x="85.3" y="126.44" width="40.59" height="13.23"/></g></g><g class="be"><g class="ao"><rect class="bf" x="93.06" y="116.38" width="27.12" height="13.4"/></g></g><g class="bg"><g class="ao"><rect class="bf" x="101.04" y="112.55" width="16.12" height="9.81"/></g></g><g class="bh"><g class="ao"><rect class="bd" x="173.77" y="126.44" width="40.59" height="13.23"/></g></g><g class="bi"><g class="ao"><rect class="bf" x="179.47" y="116.38" width="27.12" height="13.4"/></g></g><g class="bj"><g class="ao"><rect class="bf" x="182.5" y="112.55" width="16.12" height="9.81"/></g></g><g class="ao"><path class="bk" d="M174.87,138.83H121.65c-.82,0-.82,2.75,0,2.75h53.22C175.68,141.58,175.68,138.83,174.87,138.83Z" transform="translate(1.36 -17.52)"/><path class="bk" d="M176.27,136.92H121.64c-.82,0-1.48.18-1.48.39s.66.39,1.48.39h54.62c.82,0,1.48-.18,1.48-.39S177.08,136.92,176.27,136.92Z" transform="translate(1.36 -17.52)"/><path class="bk" d="M167.58,136.2c3.69-1.24,4.28-6.58,4.32-9.51h-1.16C170.68,134.76,167.8,136.11,167.58,136.2Z" transform="translate(1.36 -17.52)"/><path class="bk" d="M167.1,136.26s4,.07,4-9.55l-7.88,0S163.27,135.52,167.1,136.26Z" transform="translate(1.36 -17.52)"/><path class="bk" d="M170.73,126.7c.21,7.71-3.25,9.56-3.25,9.56,4.19-1.68,3.92-9.56,3.92-9.56Z" transform="translate(1.36 -17.52)"/><path class="bk" d="M163.63,126.69h-1.16c0,2.93.63,8.27,4.32,9.51C166.57,136.11,163.69,134.76,163.63,126.69Z" transform="translate(1.36 -17.52)"/><path class="bk" d="M158.21,136.2c3.69-1.24,4.28-6.58,4.32-9.51h-1.16C161.31,134.76,158.43,136.11,158.21,136.2Z" transform="translate(1.36 -17.52)"/><path class="bk" d="M157.73,136.26s4,.07,4-9.55l-7.88,0S153.9,135.52,157.73,136.26Z" transform="translate(1.36 -17.52)"/><path class="bk" d="M161.37,126.7c.22,7.71-3.25,9.56-3.25,9.56,4.19-1.68,3.93-9.56,3.93-9.56Z" transform="translate(1.36 -17.52)"/><path class="bk" d="M154.26,126.69H153.1c0,2.93.63,8.27,4.32,9.51C157.2,136.11,154.32,134.76,154.26,126.69Z" transform="translate(1.36 -17.52)"/><path class="bk" d="M148.84,136.2c3.69-1.24,4.28-6.58,4.32-9.51H152C151.94,134.76,149.06,136.11,148.84,136.2Z" transform="translate(1.36 -17.52)"/><path class="bk" d="M148.36,136.26s4,.07,4-9.55l-7.88,0S144.53,135.52,148.36,136.26Z" transform="translate(1.36 -17.52)"/><path class="bk" d="M152,126.7c.22,7.71-3.25,9.56-3.25,9.56,4.19-1.68,3.93-9.56,3.93-9.56Z" transform="translate(1.36 -17.52)"/><path class="bk" d="M144.9,126.69h-1.16c0,2.93.63,8.27,4.32,9.51C147.84,136.11,145,134.76,144.9,126.69Z" transform="translate(1.36 -17.52)"/><path class="bk" d="M139.48,136.2c3.69-1.24,4.28-6.58,4.32-9.51h-1.16C142.57,134.76,139.69,136.11,139.48,136.2Z" transform="translate(1.36 -17.52)"/><path class="bk" d="M139,136.26s4,.07,4-9.55l-7.88,0S135.16,135.52,139,136.26Z" transform="translate(1.36 -17.52)"/><path class="bk" d="M142.63,126.7c.22,7.71-3.25,9.56-3.25,9.56,4.19-1.68,3.92-9.56,3.92-9.56Z" transform="translate(1.36 -17.52)"/><path class="bk" d="M135.53,126.69h-1.16c0,2.93.63,8.27,4.32,9.51C138.47,136.11,135.59,134.76,135.53,126.69Z" transform="translate(1.36 -17.52)"/><path class="bk" d="M130.11,136.2c3.69-1.24,4.28-6.58,4.32-9.51h-1.16C133.21,134.76,130.32,136.11,130.11,136.2Z" transform="translate(1.36 -17.52)"/><path class="bk" d="M129.63,136.26s4,.07,4-9.55l-7.88,0S125.79,135.52,129.63,136.26Z" transform="translate(1.36 -17.52)"/><path class="bk" d="M133.26,126.7c.22,7.71-3.25,9.56-3.25,9.56,4.19-1.68,3.92-9.56,3.92-9.56Z" transform="translate(1.36 -17.52)"/><path class="bk" d="M126.16,126.69H125c0,2.93.63,8.27,4.32,9.51C129.1,136.11,126.22,134.76,126.16,126.69Z" transform="translate(1.36 -17.52)"/></g><g class="bl"><g class="ao"><rect class="e" x="115.73" y="94.45" width="68.81" height="17.38"/></g></g></g></g></g></g><g class="bm"><g class="d"><rect class="e" x="115.73" y="94.49" width="68.81" height="17.34"/></g></g><g class="bn"><g class="d"><rect class="r" x="80.29" y="84.99" width="139.17" height="54.1"/></g></g><g class="bo"><g class="d"><rect class="e" x="79.44" y="84.99" width="140.75" height="54.68"/></g></g><g class="d"><ellipse class="bp" cx="149.79" cy="132.86" rx="92.99" ry="92.31"/></g><g class="bq"><g class="d"><rect class="r" x="30.4" y="123.5" width="18.28" height="17.53"/></g></g><g class="br"><g class="d"><rect class="r" x="250.91" y="123.5" width="18.28" height="17.53"/></g></g><g class="bs"><g class="d"><rect class="r" x="31.17" y="100.34" width="17.68" height="16.12"/></g></g><g class="bt"><g class="d"><rect class="r" x="34.16" y="88.19" width="19.97" height="17.33"/></g></g><g class="bu"><g class="d"><rect class="r" x="39.32" y="74.96" width="19.96" height="18.22"/></g></g><g class="bv"><g class="d"><rect class="r" x="45.24" y="63.96" width="20.15" height="18.93"/></g></g><g class="bw"><g class="d"><rect class="r" x="52.43" y="55.03" width="18.66" height="18.19"/></g></g><g class="bx"><g class="d"><rect class="r" x="63.54" y="44.65" width="16.95" height="16.93"/></g></g><g class="by"><g class="d"><rect class="r" x="72.5" y="31.64" width="23.18" height="22.8"/></g></g><g class="bz"><g class="d"><rect class="r" x="94.92" y="23.3" width="16.12" height="17.49"/></g></g><g class="ca"><g class="d"><rect class="r" x="106.82" y="17.56" width="14.47" height="19.35"/></g></g><g class="cb"><g class="d"><rect class="r" x="125.13" y="14.84" width="9.89" height="17.54"/></g></g><g class="cc"><g class="d"><rect class="r" x="132.63" y="13.3" width="15.44" height="17.98"/></g></g><g class="cd"><g class="d"><rect class="r" x="146.7" y="13.22" width="14.09" height="17.31"/></g></g><g class="ce"><g class="d"><rect class="r" x="158.09" y="14.23" width="15.56" height="17.6"/></g></g><g class="cf"><g class="d"><rect class="r" x="170.62" y="16.15" width="16.98" height="19.45"/></g></g><g class="cg"><g class="d"><rect class="r" x="183.31" y="20.3" width="22.3" height="21.59"/></g></g><g class="ch"><g class="d"><rect class="r" x="197.64" y="29.61" width="17.65" height="19.18"/></g></g><g class="ci"><g class="d"><rect class="r" x="209.84" y="34.19" width="17.19" height="18.35"/></g></g><g class="cj"><g class="d"><rect class="r" x="216.39" y="41.85" width="15.3" height="16.02"/></g></g><g class="ck"><g class="d"><rect class="r" x="222.89" y="48.56" width="17.05" height="16.83"/></g></g><g class="cl"><g class="d"><rect class="r" x="229.88" y="57.53" width="20.57" height="19.84"/></g></g><g class="cm"><g class="d"><rect class="r" x="239.77" y="77.42" width="19.29" height="16.79"/></g></g><g class="cn"><g class="d"><rect class="r" x="246.56" y="88" width="17.71" height="16.1"/></g></g><g class="co"><g class="d"><rect class="r" x="249.87" y="99.05" width="18.37" height="14.25"/></g></g><g class="d"><path class="cp" d="M35.27,165.21c7,55.91,55,99.19,113.17,99.19s106.22-43.28,113.17-99.19" transform="translate(1.36 -17.52)"/><path class="cp" d="M40.93,165.21c6.61,53.11,52.22,94.23,107.51,94.23S249.34,218.32,256,165.21" transform="translate(1.36 -17.52)"/></g><g class="al"><g class="d"><g class="j"><g class="cq"><g class="cr"><g class="ao"><rect class="e" x="121.55" y="230.06" width="55.93" height="26.01"/></g></g><g class="cs"><g class="ao"><rect class="r" x="127.4" y="236.57" width="12.36" height="14.38"/></g></g><g class="ct"><g class="ao"><rect class="r" x="138.61" y="237.21" width="11.77" height="14.17"/></g></g><g class="cu"><g class="ao"><rect class="r" x="149.5" y="237.03" width="11.98" height="14.17"/></g></g><g class="cv"><g class="ao"><rect class="r" x="160.28" y="236.02" width="12.13" height="14.17"/></g></g></g></g></g></g></svg>