<?xml version="1.0" encoding="utf-8"?>
<!-- Generator: Adobe Illustrator 20.1.0, SVG Export Plug-In . SVG Version: 6.00 Build 0)  -->
<svg version="1.1" id="Layer_1" xmlns="http://www.w3.org/2000/svg" xmlns:xlink="http://www.w3.org/1999/xlink" x="0px" y="0px"
	 viewBox="0 0 331.2 274" style="enable-background:new 0 0 331.2 274;" xml:space="preserve">
<title>Asset 1</title>
<g id="Layer_2">
	<path d="M323.3,0h-94.4c-31.3,0-53,23.2-63.3,37.2c-10.3-14-32-37.2-63.3-37.2H7.8C3.5,0,0,4,0,9v166.2v5.4V265c0,5,3.5,9,7.8,9
		h315.5c4.3,0,7.9-4,7.9-9V9C331.2,4,327.6,0,323.3,0z M15.7,256v-34.5c21.2-0.2,42.3,1.3,63.3,4.3c35.5,5.5,60.5,16,72.5,30.2H15.7
		z M157.7,238.1c-15.5-14.5-41.1-24.6-76.6-30.1c-21.6-3.2-43.5-4.7-65.4-4.5v-18.8v-9.4V18h86.6c30.4,0,50.5,29.1,55.5,37V238.1z
		 M315.5,256H179.6c21-25.2,79.8-34.5,132.7-34.5h3.2V256z M315.5,203.5h-3.2c-17.2,0-50.6,1.1-81.9,8.3
		c-25.4,5.9-44.5,14.7-56.9,26.4V55c4.9-7.9,24.9-37,55.5-37h86.6V203.5z"/>
</g>
</svg>
