<?xml version="1.0" encoding="utf-8"?>
<!-- Generator: Adobe Illustrator 18.1.0, SVG Export Plug-In . SVG Version: 6.00 Build 0)  -->
<svg version="1.1" id="Layer_1" xmlns="http://www.w3.org/2000/svg" xmlns:xlink="http://www.w3.org/1999/xlink" x="0px" y="0px"
	 width="24px" height="24px" viewBox="0 0 24 24" enable-background="new 0 0 24 24" xml:space="preserve">
<g>
	<path d="M15.4287,21.0156H8.5342c-0.2764,0-0.5-0.2236-0.5-0.5s0.2236-0.5,0.5-0.5h6.8945c0.2764,0,0.5,0.2236,0.5,0.5
		S15.7051,21.0156,15.4287,21.0156z"/>
	<path d="M15.4287,19.0156H8.5342c-0.2764,0-0.5-0.2236-0.5-0.5s0.2236-0.5,0.5-0.5h6.8945c0.2764,0,0.5,0.2236,0.5,0.5
		S15.7051,19.0156,15.4287,19.0156z"/>
	<path d="M17.4961,8.0537H6.5063c-0.2764,0-0.5-0.2236-0.5-0.5s0.2236-0.5,0.5-0.5h10.9897c0.2764,0,0.5,0.2236,0.5,0.5
		S17.7725,8.0537,17.4961,8.0537z"/>
	<path d="M21.4883,14.9785H2.4868c-1.3735,0-2.4912-1.1318-2.4912-2.5225V5.5464c0-1.3911,1.1177-2.5229,2.4912-2.5229h4.0195
		c0.2764,0,0.5,0.2236,0.5,0.5s-0.2236,0.5-0.5,0.5H2.4868c-0.8223,0-1.4912,0.6831-1.4912,1.5229v6.9097
		c0,0.8398,0.6689,1.5225,1.4912,1.5225h19.0015c0.8213,0,1.4902-0.6826,1.4902-1.5225V5.5464c0-0.8398-0.6689-1.5229-1.4902-1.5229
		h-3.9922c-0.2764,0-0.5-0.2236-0.5-0.5s0.2236-0.5,0.5-0.5h3.9922c1.373,0,2.4902,1.1318,2.4902,2.5229v6.9097
		C23.9785,13.8467,22.8613,14.9785,21.4883,14.9785z"/>
	<path d="M17.0127,24.0059H6.9888c-0.5415,0-0.9824-0.4541-0.9824-1.0127v-6.3867c0-0.2764,0.2236-0.5,0.5-0.5s0.5,0.2236,0.5,0.5
		v6.3867l10.0063,0.0127l-0.0166-6.3994c0-0.2764,0.2236-0.5,0.5-0.5s0.5,0.2236,0.5,0.5v6.3867
		C17.9961,23.5518,17.5547,24.0059,17.0127,24.0059z"/>
	<path d="M17.4961,8.0537c-0.2764,0-0.5-0.2236-0.5-0.5v-3.856l-2.1787-2.6763L7.0166,1.0591L7.0063,7.5537
		c0,0.2764-0.2236,0.5-0.5,0.5s-0.5-0.2236-0.5-0.5V1.0708c0-0.5576,0.4531-1.0117,1.0103-1.0117h7.8301
		c0.2666,0,0.5186,0.103,0.709,0.2905l2.1758,2.6685c0.1553,0.1504,0.2646,0.4126,0.2646,0.6797v3.856
		C17.9961,7.8301,17.7725,8.0537,17.4961,8.0537z"/>
	<path d="M20.4795,12.0195c-0.1396,0-0.2598-0.0596-0.3594-0.1499c-0.0898-0.0996-0.1406-0.2197-0.1406-0.3496
		c0-0.1304,0.0508-0.2603,0.1406-0.3501c0.1992-0.2002,0.5195-0.1899,0.71-0.0103c0.0898,0.0903,0.1494,0.2202,0.1494,0.3604
		c0,0.1299-0.0498,0.2598-0.1494,0.3496C20.7402,11.96,20.6094,12.0195,20.4795,12.0195z"/>
</g>
<rect fill="none" width="24" height="24"/>
</svg>
