<?xml version="1.0" encoding="utf-8"?>
<!-- Generator: Adobe Illustrator 18.1.0, SVG Export Plug-In . SVG Version: 6.00 Build 0)  -->
<svg version="1.1" id="Layer_1" xmlns="http://www.w3.org/2000/svg" xmlns:xlink="http://www.w3.org/1999/xlink" x="0px" y="0px"
	 width="24px" height="24px" viewBox="0 0 24 24" enable-background="new 0 0 24 24" xml:space="preserve">
<g>
	<path d="M8.4565,10H3.4932c-0.2764,0-0.5-0.2236-0.5-0.5S3.2168,9,3.4932,9h4.9634c0.2764,0,0.5,0.2236,0.5,0.5
		S8.7329,10,8.4565,10z"/>
	<path d="M8.4565,13H3.4932c-0.2764,0-0.5-0.2236-0.5-0.5s0.2236-0.5,0.5-0.5h4.9634c0.2764,0,0.5,0.2236,0.5,0.5
		S8.7329,13,8.4565,13z"/>
	<path d="M8.4565,16H3.4932c-0.2764,0-0.5-0.2236-0.5-0.5s0.2236-0.5,0.5-0.5h4.9634c0.2764,0,0.5,0.2236,0.5,0.5
		S8.7329,16,8.4565,16z"/>
	<path d="M20.4463,10h-4.9355c-0.2764,0-0.5-0.2236-0.5-0.5s0.2236-0.5,0.5-0.5h4.9355c0.2764,0,0.5,0.2236,0.5,0.5
		S20.7227,10,20.4463,10z"/>
	<path d="M20.4463,13h-4.9355c-0.2764,0-0.5-0.2236-0.5-0.5s0.2236-0.5,0.5-0.5h4.9355c0.2764,0,0.5,0.2236,0.5,0.5
		S20.7227,13,20.4463,13z"/>
	<path d="M20.4463,16h-4.9355c-0.2764,0-0.5-0.2236-0.5-0.5s0.2236-0.5,0.5-0.5h4.9355c0.2764,0,0.5,0.2236,0.5,0.5
		S20.7227,16,20.4463,16z"/>
	<path d="M11.9648,21.083c-0.0225,0-0.0454-0.002-0.0679-0.0049c-2.1553-0.2949-3.6235-0.4443-5.6646-0.4443
		c-2.2935,0-4.7012,0.1855-5.6006,0.4316c-0.1499,0.042-0.3115,0.0098-0.4351-0.085C0.0728,20.8857,0,20.7393,0,20.583V5.9253
		c0-1.4829,3.1304-2.147,6.2324-2.147s6.2324,0.6641,6.2324,2.147V20.583c0,0.1445-0.0625,0.2822-0.1709,0.377
		C12.2021,21.04,12.085,21.083,11.9648,21.083z M6.2324,19.6338c1.9131,0,3.3301,0.127,5.2324,0.3779V5.9253
		c-0.0356-0.3428-1.8589-1.147-5.2324-1.147S1.0356,5.5825,1,5.9258v14.041C2.3423,19.7393,4.5342,19.6338,6.2324,19.6338z"/>
	<path d="M23.4297,21.083c-0.0439,0-0.0889-0.0059-0.1318-0.0176c-0.8994-0.2461-3.3066-0.4316-5.5996-0.4316
		c-2.041,0-3.5098,0.1494-5.666,0.4443c-0.144,0.0186-0.2876-0.0234-0.396-0.1182c-0.1089-0.0947-0.1714-0.2324-0.1714-0.377V5.9253
		c0-1.4829,3.1309-2.147,6.2334-2.147c3.1016,0,6.2314,0.6641,6.2314,2.147V20.583c0,0.1562-0.0723,0.3027-0.1963,0.3975
		C23.6445,21.0479,23.5381,21.083,23.4297,21.083z M17.6982,4.7783c-3.373,0-5.1973,0.8042-5.2334,1.1475v14.0859
		c1.9033-0.251,3.3203-0.3779,5.2334-0.3779c1.6982,0,3.8896,0.1055,5.2314,0.333V5.9253
		C22.8945,5.5825,21.0713,4.7783,17.6982,4.7783z"/>
</g>
<rect fill="none" width="24" height="24"/>
</svg>
