<svg width="34" height="34" viewBox="0 0 34 34" fill="none" xmlns="http://www.w3.org/2000/svg">
<path d="M17.0007 25.3333C19.3062 25.3333 21.2718 24.5206 22.8973 22.895C24.5218 21.2706 25.334 19.3056 25.334 17C25.334 14.6945 24.5218 12.7289 22.8973 11.1033C21.2718 9.4789 19.3062 8.66668 17.0007 8.66668C14.6951 8.66668 12.7301 9.4789 11.1057 11.1033C9.4801 12.7289 8.66732 14.6945 8.66732 17C8.66732 19.3056 9.4801 21.2706 11.1057 22.895C12.7301 24.5206 14.6951 25.3333 17.0007 25.3333ZM17.0007 33.6667C14.6951 33.6667 12.5284 33.2289 10.5007 32.3533C8.47287 31.4789 6.70898 30.2917 5.20898 28.7917C3.70898 27.2917 2.52176 25.5278 1.64732 23.5C0.771762 21.4722 0.333984 19.3056 0.333984 17C0.333984 14.6945 0.771762 12.5278 1.64732 10.5C2.52176 8.47223 3.70898 6.70834 5.20898 5.20834C6.70898 3.70834 8.47287 2.52057 10.5007 1.64501C12.5284 0.770566 14.6951 0.333344 17.0007 0.333344C19.3062 0.333344 21.4729 0.770566 23.5007 1.64501C25.5284 2.52057 27.2923 3.70834 28.7923 5.20834C30.2923 6.70834 31.4795 8.47223 32.354 10.5C33.2295 12.5278 33.6673 14.6945 33.6673 17C33.6673 19.3056 33.2295 21.4722 32.354 23.5C31.4795 25.5278 30.2923 27.2917 28.7923 28.7917C27.2923 30.2917 25.5284 31.4789 23.5007 32.3533C21.4729 33.2289 19.3062 33.6667 17.0007 33.6667ZM17.0007 30.3333C20.7229 30.3333 23.8756 29.0417 26.459 26.4583C29.0423 23.875 30.334 20.7222 30.334 17C30.334 13.2778 29.0423 10.125 26.459 7.54168C23.8756 4.95834 20.7229 3.66668 17.0007 3.66668C13.2784 3.66668 10.1257 4.95834 7.54232 7.54168C4.95898 10.125 3.66732 13.2778 3.66732 17C3.66732 20.7222 4.95898 23.875 7.54232 26.4583C10.1257 29.0417 13.2784 30.3333 17.0007 30.3333Z" fill="white"/>
</svg>
