<?xml version="1.0" encoding="utf-8"?>
<!-- Generator: Adobe Illustrator 20.1.0, SVG Export Plug-In . SVG Version: 6.00 Build 0)  -->
<svg version="1.1" id="Layer_1" xmlns="http://www.w3.org/2000/svg" xmlns:xlink="http://www.w3.org/1999/xlink" x="0px" y="0px"
	 viewBox="0 0 12.7 10.9" style="enable-background:new 0 0 12.7 10.9;" xml:space="preserve">
<style type="text/css">
	.st0{fill:#122E51;}
</style>
<path class="st0" d="M12.4,4.7L7.8,0.3c-0.4-0.4-1-0.4-1.4,0C6,0.7,6,1.3,6.4,1.7l2.8,2.7H1.1c-0.6,0-1,0.4-1,1s0.4,1,1,1h8.2
	L6.4,9.2c-0.4,0.4-0.4,1,0,1.4c0.2,0.2,0.5,0.3,0.7,0.3c0.3,0,0.5-0.1,0.7-0.3l4.6-4.5c0.2-0.2,0.3-0.4,0.3-0.7
	C12.7,5.2,12.6,4.9,12.4,4.7z"/>
</svg>
