<?xml version="1.0" encoding="utf-8"?>
<!-- Generator: Adobe Illustrator 18.1.0, SVG Export Plug-In . SVG Version: 6.00 Build 0)  -->
<svg version="1.1" id="Layer_1" xmlns="http://www.w3.org/2000/svg" xmlns:xlink="http://www.w3.org/1999/xlink" x="0px" y="0px"
	 width="24px" height="24px" viewBox="0 0 24 24" enable-background="new 0 0 24 24" xml:space="preserve">
<g>
	<path d="M22.6846,24.0146H1.314c-0.7251,0-1.3149-0.5957-1.3149-1.3271v-2.9053c0-0.5439,0.3389-1.042,0.8428-1.2383
		c6.5713-2.541,7.668-3.6143,7.8403-3.9443v-0.8672c-0.7339-0.8027-1.3066-1.8564-1.668-3.0679
		C6.5635,10.29,6.2632,9.752,6.1812,9.1616C6.0981,8.562,6.2417,7.9692,6.5864,7.4741V5.0396c0-3.1445,2.0239-5.0215,5.4136-5.0215
		c3.4385,0,5.4111,1.8301,5.4111,5.0215v2.4331c0.3457,0.4961,0.4893,1.0894,0.4062,1.6895
		c-0.082,0.5903-0.3828,1.1289-0.834,1.5029c-0.3604,1.2114-0.9336,2.2646-1.667,3.0674v0.8672
		c0.1729,0.3311,1.2705,1.4062,7.8398,3.9434C23.6611,18.7393,24,19.2363,24,19.7822v2.9053
		C24,23.4189,23.4102,24.0146,22.6846,24.0146z M12,1.0181c-2.8462,0-4.4136,1.4282-4.4136,4.0215v2.6011
		c0,0.1147-0.0396,0.2261-0.1118,0.3154c-0.2485,0.3057-0.356,0.6851-0.3027,1.0684c0.0527,0.3784,0.2583,0.7192,0.5645,0.9351
		c0.0942,0.0659,0.1631,0.1631,0.1938,0.2739c0.3345,1.1963,0.8911,2.2158,1.6094,2.9502c0.0913,0.0938,0.1426,0.2188,0.1426,0.3496
		v1.1621c0,0.0508-0.0078,0.1006-0.0225,0.1484c-0.2388,0.7666-1.4297,1.916-8.4561,4.6328
		C1.082,19.5234,0.999,19.6465,0.999,19.7822v2.9053c0,0.1807,0.1411,0.3271,0.3149,0.3271h21.3706
		c0.1738,0,0.3154-0.1465,0.3154-0.3271v-2.9053c0-0.1357-0.082-0.2588-0.2051-0.3066c-7.0244-2.7129-8.2158-3.8643-8.4561-4.6309
		c-0.0146-0.0488-0.0225-0.0986-0.0225-0.1494v-1.1621c0-0.1309,0.0508-0.2559,0.1426-0.3496
		c0.7178-0.7334,1.2744-1.7534,1.6084-2.9492c0.0312-0.1113,0.0996-0.2085,0.1943-0.2749c0.3066-0.2153,0.5127-0.5562,0.5654-0.9346
		c0.0527-0.3838-0.0547-0.7637-0.3037-1.0698c-0.0723-0.0889-0.1123-0.2007-0.1123-0.3154V5.0396
		C16.4111,2.4087,14.8857,1.0181,12,1.0181z"/>
</g>
<rect x="0.0005" y="0.0004" fill="none" width="24" height="24"/>
</svg>
