<?xml version="1.0" encoding="utf-8"?>
<!-- Generator: Adobe Illustrator 18.1.0, SVG Export Plug-In . SVG Version: 6.00 Build 0)  -->
<svg version="1.1" id="Layer_1" xmlns="http://www.w3.org/2000/svg" xmlns:xlink="http://www.w3.org/1999/xlink" x="0px" y="0px"
	 width="24px" height="24px" viewBox="0 0 24 24" enable-background="new 0 0 24 24" xml:space="preserve">
<g>
	<path d="M11.8892,13.8926c-0.5073,0-1.0142-0.1777-1.4092-0.5322L2.5527,6.2319C2.3477,6.0474,2.3306,5.7314,2.5156,5.5259
		c0.1855-0.2056,0.5015-0.2207,0.7061-0.0371l7.9268,7.1274c0.4077,0.3662,1.0723,0.3672,1.4814,0l7.9268-7.1274
		c0.2031-0.1846,0.5205-0.1694,0.7061,0.0371c0.1846,0.2056,0.168,0.5215-0.0381,0.7061l-7.9268,7.1284
		C12.9033,13.7148,12.3965,13.8926,11.8892,13.8926z"/>
	<path d="M20.8916,18.6426c-0.1133,0-0.2266-0.0381-0.3193-0.1152l-5.3105-4.417c-0.2129-0.1768-0.2412-0.4922-0.0654-0.7041
		c0.1787-0.2129,0.4941-0.2402,0.7041-0.0654l5.3105,4.417c0.2129,0.1768,0.2412,0.4922,0.0654,0.7041
		C21.1768,18.5811,21.0352,18.6426,20.8916,18.6426z"/>
	<path d="M2.8877,18.6426c-0.1436,0-0.2861-0.0615-0.3848-0.1807C2.3262,18.25,2.355,17.9346,2.5674,17.7578l5.3105-4.417
		c0.2134-0.1768,0.5278-0.1475,0.7041,0.0654c0.1768,0.2119,0.1479,0.5273-0.0645,0.7041l-5.3105,4.417
		C3.1138,18.6045,3,18.6426,2.8877,18.6426z"/>
	<path d="M21.1504,21H2.8423C1.2485,21,0,19.7754,0,18.2119V5.791C0,4.2261,1.2485,3,2.8423,3h18.3081C22.7217,3,24,4.252,24,5.791
		v12.4209C24,19.749,22.7217,21,21.1504,21z M2.8423,4C1.8091,4,1,4.7866,1,5.791v12.4209C1,19.2148,1.8091,20,2.8423,20h18.3081
		C22.1875,20,23,19.2148,23,18.2119V5.791C23,4.7866,22.1875,4,21.1504,4H2.8423z"/>
</g>
<rect fill="none" width="24" height="24"/>
</svg>
