<?xml version="1.0" encoding="utf-8"?>
<!-- Generator: Adobe Illustrator 18.1.0, SVG Export Plug-In . SVG Version: 6.00 Build 0)  -->
<svg version="1.1" id="Layer_1" xmlns="http://www.w3.org/2000/svg" xmlns:xlink="http://www.w3.org/1999/xlink" x="0px" y="0px"
	 width="24px" height="24px" viewBox="0 0 24 24" enable-background="new 0 0 24 24" xml:space="preserve">
<g>
	<path d="M1.3535,23.9404c-0.3179,0-0.6396-0.1328-0.8926-0.3867c-0.3687-0.3701-0.4863-0.8994-0.3003-1.3486
		c2.3052-6.5059,2.3457-6.5459,2.4541-6.6533c0.1943-0.1943,0.5117-0.1953,0.707,0.002c0.1597,0.1611,0.1875,0.4033,0.0835,0.5928
		c-0.1558,0.3623-1.4604,4.0156-2.3115,6.417c-0.0444,0.1094,0.0103,0.2188,0.0757,0.2852
		c0.0386,0.0381,0.1382,0.1201,0.2529,0.0742c2.4375-0.8477,6.1099-2.1328,6.4751-2.2871c0.1904-0.1016,0.4307-0.0732,0.5903,0.085
		c0.1963,0.1943,0.1973,0.5107,0.0029,0.707c-0.1089,0.1094-0.1494,0.1504-6.7153,2.4307
		C1.6401,23.9141,1.4971,23.9404,1.3535,23.9404z"/>
	<path d="M2.9028,23.4307c-0.1279,0-0.2559-0.0488-0.3535-0.1465L0.731,21.4658c-0.1953-0.1953-0.1953-0.5117,0-0.707
		s0.5117-0.1953,0.707,0l1.8184,1.8184c0.1953,0.1953,0.1953,0.5117,0,0.707C3.1587,23.3818,3.0308,23.4307,2.9028,23.4307z"/>
	<path d="M8.1357,21.5752c-0.1279,0-0.2559-0.0488-0.3535-0.1465l-5.1689-5.1689c-0.1953-0.1953-0.1953-0.5117,0-0.707
		L17.4385,0.7271c0.79-0.79,2.166-0.7881,2.9541,0l2.9229,2.9229c0.3945,0.3945,0.6113,0.9189,0.6113,1.4766
		S23.71,6.2085,23.3154,6.603L8.4893,21.4287C8.3916,21.5264,8.2637,21.5752,8.1357,21.5752z M3.6738,15.9062l4.4619,4.4619
		L22.6084,5.896c0.2051-0.2056,0.3184-0.479,0.3184-0.7695s-0.1133-0.564-0.3184-0.7695l-2.9229-2.9229
		c-0.4121-0.4106-1.1279-0.4121-1.54,0L3.6738,15.9062z"/>
	<path d="M6.0967,19.5361c-0.1279,0-0.2559-0.0488-0.3535-0.1465c-0.1953-0.1953-0.1953-0.5117,0-0.707L17.8438,6.582
		c0.1953-0.1953,0.5117-0.1953,0.707,0s0.1953,0.5117,0,0.707L6.4502,19.3896C6.3525,19.4873,6.2246,19.5361,6.0967,19.5361z"/>
</g>
<rect fill="none" width="24" height="24"/>
</svg>
