<?xml version="1.0" encoding="utf-8"?>
<!-- Generator: Adobe Illustrator 18.1.0, SVG Export Plug-In . SVG Version: 6.00 Build 0)  -->
<svg version="1.1" id="Layer_1" xmlns="http://www.w3.org/2000/svg" xmlns:xlink="http://www.w3.org/1999/xlink" x="0px" y="0px"
	 width="24px" height="24px" viewBox="0 0 24 24" enable-background="new 0 0 24 24" xml:space="preserve">
<g>
	<path d="M22.0625,23.6963c-0.4521,0-0.8779-0.1758-1.1982-0.4961l-6.416-6.416l0.707-0.707l6.416,6.416
		c0.1318,0.1309,0.3057,0.2031,0.4912,0.2031h0.001c0.1855,0,0.3594-0.0723,0.4902-0.2031c0.2715-0.2715,0.2715-0.7119,0-0.9834
		l-6.416-6.416l0.707-0.707l6.416,6.416c0.6611,0.6611,0.6611,1.7363,0,2.3975c-0.3193,0.3203-0.7441,0.4961-1.1973,0.4961
		C22.0635,23.6963,22.0635,23.6963,22.0625,23.6963z"/>
	<path d="M9.5347,18.6992c-5.0869,0-9.2256-4.1387-9.2256-9.2256S4.4478,0.248,9.5347,0.248c5.0864,0,9.2251,4.1387,9.2251,9.2256
		S14.6211,18.6992,9.5347,18.6992z M9.5347,1.248c-4.5356,0-8.2256,3.6899-8.2256,8.2256c0,4.5352,3.6899,8.2256,8.2256,8.2256
		s8.2251-3.6904,8.2251-8.2256C17.7598,4.938,14.0703,1.248,9.5347,1.248z"/>
	<path d="M3.6021,10.4683c-0.2681,0-0.4902-0.2129-0.499-0.4834C3.0396,8.0796,3.7437,6.2915,5.085,4.9502
		c1.3408-1.3403,3.1294-2.0527,5.0342-1.9819c0.2759,0.0088,0.4922,0.2397,0.4829,0.5161c-0.0088,0.2764-0.2388,0.522-0.5161,0.4829
		C8.4624,3.9082,6.9351,4.5137,5.792,5.6572C4.6484,6.8008,4.0483,8.3257,4.1021,9.9517c0.0093,0.2759-0.207,0.5073-0.4829,0.5161
		C3.6133,10.4683,3.6079,10.4683,3.6021,10.4683z"/>
</g>
<rect fill="none" width="24" height="24"/>
</svg>
