<svg width="8" height="15" viewBox="0 0 8 15" fill="none" xmlns="http://www.w3.org/2000/svg">
<path d="M6.46328 13.9459L0.495573 7.99587C0.42474 7.92503 0.374684 7.8483 0.345406 7.76566C0.315656 7.68302 0.300781 7.59448 0.300781 7.50003C0.300781 7.40559 0.315656 7.31705 0.345406 7.23441C0.374684 7.15177 0.42474 7.07503 0.495573 7.0042L6.46328 1.03649C6.62856 0.871213 6.83516 0.788574 7.08307 0.788574C7.33099 0.788574 7.54349 0.877116 7.72057 1.0542C7.89766 1.23128 7.9862 1.43788 7.9862 1.67399C7.9862 1.9101 7.89766 2.1167 7.72057 2.29378L2.51432 7.50003L7.72057 12.7063C7.88585 12.8716 7.96849 13.0751 7.96849 13.3169C7.96849 13.5591 7.87995 13.7688 7.70286 13.9459C7.52578 14.1229 7.31918 14.2115 7.08307 14.2115C6.84696 14.2115 6.64036 14.1229 6.46328 13.9459Z" fill="white"/>
</svg>
