<?xml version="1.0" encoding="utf-8"?>
<!-- Generator: Adobe Illustrator 18.1.0, SVG Export Plug-In . SVG Version: 6.00 Build 0)  -->
<svg version="1.1" id="Layer_1" xmlns="http://www.w3.org/2000/svg" xmlns:xlink="http://www.w3.org/1999/xlink" x="0px" y="0px"
	 width="24px" height="24px" viewBox="0 0 24 24" enable-background="new 0 0 24 24" xml:space="preserve" fill="#122E51">
<g>
	<path d="M17.4434,12.9951h-5.9385c-0.2764,0-0.5-0.2236-0.5-0.5V3.5464c0-0.2764,0.2236-0.5,0.5-0.5s0.5,0.2236,0.5,0.5v8.4487
		h5.4385c0.2764,0,0.5,0.2236,0.5,0.5S17.7197,12.9951,17.4434,12.9951z"/>
	<path d="M12,23.7529c-6.48,0-11.752-5.2715-11.752-11.752C0.248,5.521,5.52,0.249,12,0.249c6.4805,0,11.752,5.272,11.752,11.752
		C23.752,18.4814,18.4805,23.7529,12,23.7529z M12,1.249c-5.9287,0-10.752,4.8232-10.752,10.752S6.0713,22.7529,12,22.7529
		s10.752-4.8232,10.752-10.752S17.9287,1.249,12,1.249z"/>
</g>
<rect fill="none" width="24" height="24"/>
</svg>
