<svg width="31" height="31" viewBox="0 0 31 31" fill="none" xmlns="http://www.w3.org/2000/svg">
<path d="M13.4587 22.2083L23.7399 11.9271L21.6982 9.88541L13.4587 18.125L9.30241 13.9687L7.26074 16.0104L13.4587 22.2083ZM15.5003 30.0833C13.483 30.0833 11.5871 29.7003 9.81283 28.9342C8.03852 28.169 6.49512 27.1302 5.18262 25.8177C3.87012 24.5052 2.8313 22.9618 2.06616 21.1875C1.30005 19.4132 0.916992 17.5173 0.916992 15.5C0.916992 13.4826 1.30005 11.5868 2.06616 9.81249C2.8313 8.03818 3.87012 6.49478 5.18262 5.18228C6.49512 3.86978 8.03852 2.83048 9.81283 2.06436C11.5871 1.29923 13.483 0.916656 15.5003 0.916656C17.5177 0.916656 19.4135 1.29923 21.1878 2.06436C22.9621 2.83048 24.5055 3.86978 25.818 5.18228C27.1305 6.49478 28.1694 8.03818 28.9345 9.81249C29.7006 11.5868 30.0837 13.4826 30.0837 15.5C30.0837 17.5173 29.7006 19.4132 28.9345 21.1875C28.1694 22.9618 27.1305 24.5052 25.818 25.8177C24.5055 27.1302 22.9621 28.169 21.1878 28.9342C19.4135 29.7003 17.5177 30.0833 15.5003 30.0833Z" fill="#F5FBC1"/>
</svg>
