<svg width="33" height="33" viewBox="0 0 33 33" fill="none" xmlns="http://www.w3.org/2000/svg">
<mask id="mask0_577_9493" style="mask-type:alpha" maskUnits="userSpaceOnUse" x="0" y="0" width="33" height="33">
<rect width="33" height="33" fill="#D9D9D9"/>
</mask>
<g mask="url(#mask0_577_9493)">
<path d="M26.95 28.875L18.2875 20.2125C17.6 20.7625 16.8094 21.1979 15.9156 21.5188C15.0219 21.8396 14.0708 22 13.0625 22C10.5646 22 8.45052 21.1349 6.72031 19.4047C4.9901 17.6745 4.125 15.5604 4.125 13.0625C4.125 10.5646 4.9901 8.45052 6.72031 6.72031C8.45052 4.9901 10.5646 4.125 13.0625 4.125C15.5604 4.125 17.6745 4.9901 19.4047 6.72031C21.1349 8.45052 22 10.5646 22 13.0625C22 14.0708 21.8396 15.0219 21.5188 15.9156C21.1979 16.8094 20.7625 17.6 20.2125 18.2875L28.875 26.95L26.95 28.875ZM13.0625 19.25C14.7812 19.25 16.2422 18.6484 17.4453 17.4453C18.6484 16.2422 19.25 14.7812 19.25 13.0625C19.25 11.3438 18.6484 9.88281 17.4453 8.67969C16.2422 7.47656 14.7812 6.875 13.0625 6.875C11.3438 6.875 9.88281 7.47656 8.67969 8.67969C7.47656 9.88281 6.875 11.3438 6.875 13.0625C6.875 14.7812 7.47656 16.2422 8.67969 17.4453C9.88281 18.6484 11.3438 19.25 13.0625 19.25Z" fill="#1C1B1F"/>
</g>
</svg>
