<?xml version="1.0" encoding="utf-8"?>
<!-- Generator: Adobe Illustrator 20.1.0, SVG Export Plug-In . SVG Version: 6.00 Build 0)  -->
<svg version="1.1" id="Layer_1" xmlns="http://www.w3.org/2000/svg" xmlns:xlink="http://www.w3.org/1999/xlink" x="0px" y="0px"
	 viewBox="0 0 45 33" style="enable-background:new 0 0 45 33;" xml:space="preserve">
<style type="text/css">
	.st0{fill:#92C8F6;}
	.st1{fill:#122E51;}
	.st2{clip-path:url(#SVGID_2_);}
	.st3{clip-path:url(#SVGID_4_);}
	.st4{clip-path:url(#SVGID_6_);}
	.st5{clip-path:url(#SVGID_8_);fill:#92C8F6;}
	.st6{clip-path:url(#SVGID_10_);fill:none;stroke:#122E51;stroke-width:2;stroke-miterlimit:10;}
	.st7{clip-path:url(#SVGID_12_);}
	.st8{clip-path:url(#SVGID_14_);fill:#92C8F6;}
	.st9{clip-path:url(#SVGID_16_);fill:none;stroke:#122E51;stroke-width:2;stroke-miterlimit:10;}
	.st10{clip-path:url(#SVGID_18_);}
	.st11{clip-path:url(#SVGID_20_);fill:#FFFFFF;}
	.st12{clip-path:url(#SVGID_22_);}
	.st13{clip-path:url(#SVGID_24_);fill:none;stroke:#122E51;stroke-width:4;stroke-miterlimit:10;}
	.st14{clip-path:url(#SVGID_26_);}
	.st15{clip-path:url(#SVGID_28_);fill:#FFFFFF;}
	.st16{clip-path:url(#SVGID_4_);fill:none;stroke:#122E51;stroke-width:2;stroke-miterlimit:10;}
	.st17{fill:none;}
	.st18{fill:#FFFFFF;}
	.st19{fill:#92C8F6;stroke:#122E51;stroke-width:2;stroke-linecap:round;stroke-linejoin:round;stroke-miterlimit:10;}
	.st20{fill:none;stroke:#122E51;stroke-width:2;stroke-linecap:round;stroke-linejoin:round;stroke-miterlimit:10;}
	.st21{fill:none;stroke:#122E51;stroke-width:2;stroke-miterlimit:10;}
	.st22{fill:#FFFFFF;stroke:#122E51;stroke-width:2;stroke-linecap:round;stroke-linejoin:round;stroke-miterlimit:10;}
</style>
<g>
	<defs>
		<rect id="SVGID_1_" x="68.2" y="24.1" width="59.2" height="42.2"/>
	</defs>
	<clipPath id="SVGID_2_">
		<use xlink:href="#SVGID_1_"  style="overflow:visible;"/>
	</clipPath>
	<g class="st2">
		<defs>
			<rect id="SVGID_3_" x="27.8" y="-976.4" width="1024" height="2765"/>
		</defs>
		<clipPath id="SVGID_4_">
			<use xlink:href="#SVGID_3_"  style="overflow:visible;"/>
		</clipPath>
		<g class="st3">
			<defs>
				<path id="SVGID_5_" d="M91.3,53.8V32.2c0-1.3-3.7-2.4-8.4-2.4c-4.7,0-8.4,1.1-8.4,2.4v21.7c1.5-0.4,5.3-0.7,8.4-0.7
					C86,53.2,88.2,53.4,91.3,53.8z"/>
			</defs>
			<clipPath id="SVGID_6_">
				<use xlink:href="#SVGID_5_"  style="overflow:visible;"/>
			</clipPath>
			<g class="st4">
				<defs>
					<rect id="SVGID_7_" x="27.8" y="-976.4" width="1024" height="2765"/>
				</defs>
				<clipPath id="SVGID_8_">
					<use xlink:href="#SVGID_7_"  style="overflow:visible;"/>
				</clipPath>
			</g>
		</g>
		<g class="st3">
			<defs>
				<rect id="SVGID_9_" x="27.8" y="-976.4" width="1024" height="2765"/>
			</defs>
			<clipPath id="SVGID_10_">
				<use xlink:href="#SVGID_9_"  style="overflow:visible;"/>
			</clipPath>
		</g>
		<g class="st3">
			<defs>
				<path id="SVGID_11_" d="M108,53.8V32.2c0-1.3-3.7-2.4-8.4-2.4c-4.7,0-8.4,1.1-8.4,2.4v21.7c3-0.4,5.3-0.7,8.4-0.7
					C102.8,53.2,106.5,53.4,108,53.8z"/>
			</defs>
			<clipPath id="SVGID_12_">
				<use xlink:href="#SVGID_11_"  style="overflow:visible;"/>
			</clipPath>
			<g class="st7">
				<defs>
					<rect id="SVGID_13_" x="27.8" y="-976.4" width="1024" height="2765"/>
				</defs>
				<clipPath id="SVGID_14_">
					<use xlink:href="#SVGID_13_"  style="overflow:visible;"/>
				</clipPath>
			</g>
		</g>
		<g class="st3">
			<defs>
				<rect id="SVGID_15_" x="27.8" y="-976.4" width="1024" height="2765"/>
			</defs>
			<clipPath id="SVGID_16_">
				<use xlink:href="#SVGID_15_"  style="overflow:visible;"/>
			</clipPath>
		</g>
		<g class="st3">
			<defs>
				<path id="SVGID_17_" d="M106.5,53.7c-0.4-0.4-0.4-1,0-1.4c0.4-0.4,1-0.4,1.4,0l6.5,6.7c0.4,0.4,0.4,1,0,1.4
					c-0.4,0.4-1,0.4-1.4,0L106.5,53.7z"/>
			</defs>
			<clipPath id="SVGID_18_">
				<use xlink:href="#SVGID_17_"  style="overflow:visible;"/>
			</clipPath>
			<g class="st10">
				<defs>
					<rect id="SVGID_19_" x="27.8" y="-976.4" width="1024" height="2765"/>
				</defs>
				<clipPath id="SVGID_20_">
					<use xlink:href="#SVGID_19_"  style="overflow:visible;"/>
				</clipPath>
			</g>
		</g>
		<g class="st3">
			<defs>
				<path id="SVGID_21_" d="M106.9,53.4c-0.2-0.2-0.2-0.5,0-0.7c0.2-0.2,0.5-0.2,0.7,0l6.5,6.7c0.2,0.2,0.2,0.5,0,0.7
					c-0.2,0.2-0.5,0.2-0.7,0L106.9,53.4z M89.6,52.7l18-17.4L131.4,60l-18,17.4L89.6,52.7z"/>
			</defs>
			<clipPath id="SVGID_22_">
				<use xlink:href="#SVGID_21_"  style="overflow:visible;"/>
			</clipPath>
			<g class="st12">
				<defs>
					<rect id="SVGID_23_" x="27.8" y="-976.4" width="1024" height="2765"/>
				</defs>
				<clipPath id="SVGID_24_">
					<use xlink:href="#SVGID_23_"  style="overflow:visible;"/>
				</clipPath>
			</g>
		</g>
		<g class="st3">
			<defs>
				<ellipse id="SVGID_25_" cx="103.5" cy="48.8" rx="7.3" ry="7.4"/>
			</defs>
			<clipPath id="SVGID_26_">
				<use xlink:href="#SVGID_25_"  style="overflow:visible;"/>
			</clipPath>
			<g class="st14">
				<defs>
					<rect id="SVGID_27_" x="27.8" y="-976.4" width="1024" height="2765"/>
				</defs>
				<clipPath id="SVGID_28_">
					<use xlink:href="#SVGID_27_"  style="overflow:visible;"/>
				</clipPath>
			</g>
		</g>
	</g>
</g>
<g>
	<path class="st0" d="M18.6,26.2v-23c0-1.4-3.9-2.6-9-2.6c-5.1,0-9,1.2-9,2.6v23c1.6-0.4,5.6-0.7,9-0.7C13,25.5,15.4,25.8,18.6,26.2
		z"/>
	<path class="st1" d="M0.7,27.2c-0.2,0-0.4-0.1-0.6-0.2c-0.2-0.2-0.4-0.5-0.4-0.8v-23c0-2.6,5.4-3.6,10-3.6c4.6,0,10,0.9,10,3.6v23
		c0,0.3-0.1,0.6-0.3,0.8s-0.5,0.3-0.8,0.2c-3.4-0.5-5.7-0.7-8.9-0.7c-3.6,0-7.3,0.3-8.7,0.7C0.8,27.2,0.7,27.2,0.7,27.2z M9.6,24.5
		c2.9,0,5.1,0.2,8,0.6V3.2c-0.2-0.4-2.9-1.6-8-1.6c-5.1,0-7.8,1.2-8,1.7l0,21.7C3.8,24.6,7.1,24.5,9.6,24.5z"/>
</g>
<g>
	<path class="st0" d="M36.6,26.2v-23c0-1.4-3.9-2.6-9-2.6c-5.1,0-9,1.2-9,2.6v23c3.3-0.4,5.6-0.7,9-0.7C31,25.5,35,25.8,36.6,26.2z"
		/>
	<path class="st1" d="M36.6,27.2c-0.1,0-0.2,0-0.3,0c-1.4-0.4-5.1-0.7-8.7-0.7c-3.2,0-5.5,0.2-8.9,0.7c-0.3,0-0.6,0-0.8-0.2
		s-0.3-0.5-0.3-0.8v-23c0-2.6,5.4-3.6,10-3.6s10,0.9,10,3.6v23c0,0.3-0.1,0.6-0.4,0.8C37,27.1,36.8,27.2,36.6,27.2z M27.6,1.6
		c-5.1,0-7.8,1.2-8,1.7l0,21.8c2.9-0.4,5.1-0.6,8-0.6c2.6,0,5.9,0.2,8,0.5V3.2C35.4,2.8,32.8,1.6,27.6,1.6z"/>
</g>
<g>
	<path class="st1" d="M13.1,9.8H5.4c-0.6,0-1-0.4-1-1s0.4-1,1-1h7.8c0.6,0,1,0.4,1,1S13.7,9.8,13.1,9.8z"/>
</g>
<g>
	<path class="st1" d="M13.1,14.5H5.4c-0.6,0-1-0.4-1-1s0.4-1,1-1h7.8c0.6,0,1,0.4,1,1S13.7,14.5,13.1,14.5z"/>
</g>
<g>
	<path class="st1" d="M13.1,19.2H5.4c-0.6,0-1-0.4-1-1s0.4-1,1-1h7.8c0.6,0,1,0.4,1,1S13.7,19.2,13.1,19.2z"/>
</g>
<g>
	<path class="st1" d="M31.9,9.8h-7.7c-0.6,0-1-0.4-1-1s0.4-1,1-1h7.7c0.6,0,1,0.4,1,1S32.5,9.8,31.9,9.8z"/>
</g>
<g>
	<path class="st1" d="M31.9,14.5h-7.7c-0.6,0-1-0.4-1-1s0.4-1,1-1h7.7c0.6,0,1,0.4,1,1S32.5,14.5,31.9,14.5z"/>
</g>
<g>
	<path class="st1" d="M31.9,19.2h-7.7c-0.6,0-1-0.4-1-1s0.4-1,1-1h7.7c0.6,0,1,0.4,1,1S32.5,19.2,31.9,19.2z"/>
</g>
<g>
	<g>
		<path class="st1" d="M42.4,32.8c-0.6,0-1.3-0.2-1.8-0.7L35.5,27c-1-1-1-2.6,0-3.5c1-1,2.6-1,3.5,0l5.1,5.1c1,1,1,2.6,0,3.5
			C43.7,32.5,43.1,32.8,42.4,32.8z M37.3,24.7c-0.1,0-0.3,0-0.4,0.1c-0.2,0.2-0.2,0.5,0,0.7l5.1,5.1c0.2,0.2,0.5,0.2,0.7,0
			c0.2-0.2,0.2-0.5,0-0.7l-5.1-5.1C37.6,24.7,37.4,24.7,37.3,24.7z"/>
	</g>
	<g>
		<circle class="st18" cx="33.1" cy="20.6" r="7"/>
		<path class="st1" d="M33.1,28.6c-4.4,0-8-3.6-8-8s3.6-8,8-8c4.4,0,8,3.6,8,8S37.5,28.6,33.1,28.6z M33.1,14.6c-3.3,0-6,2.7-6,6
			s2.7,6,6,6c3.3,0,6-2.7,6-6S36.4,14.6,33.1,14.6z"/>
	</g>
</g>
</svg>
