<?xml version="1.0" encoding="utf-8"?>
<!-- Generator: Adobe Illustrator 20.1.0, SVG Export Plug-In . SVG Version: 6.00 Build 0)  -->
<svg version="1.1" id="Layer_1" xmlns="http://www.w3.org/2000/svg" xmlns:xlink="http://www.w3.org/1999/xlink" x="0px" y="0px"
	 viewBox="0 0 45 38.7" style="enable-background:new 0 0 45 38.7;" xml:space="preserve">
<style type="text/css">
	.st0{fill:#92C8F6;}
	.st1{fill:#122E51;}
	.st2{fill:#FFFFFF;}
	.st3{clip-path:url(#SVGID_2_);}
	.st4{clip-path:url(#SVGID_4_);}
	.st5{clip-path:url(#SVGID_6_);fill:#92C8F6;}
	.st6{clip-path:url(#SVGID_8_);fill:none;stroke:#122E51;stroke-width:2;stroke-miterlimit:10;}
	.st7{clip-path:url(#SVGID_10_);}
	.st8{clip-path:url(#SVGID_12_);fill:#92C8F6;}
	.st9{clip-path:url(#SVGID_14_);fill:none;stroke:#122E51;stroke-width:2;stroke-miterlimit:10;}
	.st10{clip-path:url(#SVGID_16_);}
	.st11{clip-path:url(#SVGID_18_);fill:#92C8F6;}
	.st12{clip-path:url(#SVGID_20_);fill:none;stroke:#122E51;stroke-width:2;stroke-miterlimit:10;}
	.st13{clip-path:url(#SVGID_22_);}
	.st14{clip-path:url(#SVGID_24_);fill:#92C8F6;}
	.st15{clip-path:url(#SVGID_26_);fill:none;stroke:#122E51;stroke-width:2;stroke-linejoin:round;stroke-miterlimit:10;}
	.st16{clip-path:url(#SVGID_28_);}
	.st17{clip-path:url(#SVGID_30_);}
	.st18{clip-path:url(#SVGID_32_);fill:#92C8F6;}
	.st19{clip-path:url(#SVGID_34_);}
	.st20{clip-path:url(#SVGID_36_);fill:none;stroke:#122E51;stroke-width:4;stroke-linejoin:round;stroke-miterlimit:10;}
	.st21{clip-path:url(#SVGID_38_);}
	.st22{clip-path:url(#SVGID_40_);fill:#FFFFFF;}
	.st23{clip-path:url(#SVGID_42_);fill:none;stroke:#122E51;stroke-width:2;stroke-miterlimit:10;}
	.st24{fill:none;}
	.st25{fill:#92C8F6;stroke:#122E51;stroke-width:2;stroke-miterlimit:10;}
	.st26{fill:#92C8F6;stroke:#122E51;stroke-width:2.0302;stroke-linejoin:round;stroke-miterlimit:10;}
	.st27{fill:none;stroke:#122E51;stroke-width:2.0831;stroke-miterlimit:10;}
	.st28{fill:none;stroke:#122E51;stroke-width:2;stroke-linecap:round;stroke-linejoin:round;stroke-miterlimit:10;}
</style>
<g>
	<defs>
		<rect id="SVGID_1_" x="58.9" y="-31.7" width="71.5" height="71.5"/>
	</defs>
	<clipPath id="SVGID_2_">
		<use xlink:href="#SVGID_1_"  style="overflow:visible;"/>
	</clipPath>
	<g class="st3">
		<defs>
			<path id="SVGID_3_" d="M102.7,7.1l0.1,20.2c0,1.1-0.8,1.9-1.9,1.9c-1.1,0-1.9-0.9-1.9-1.9L98.8,7.1"/>
		</defs>
		<clipPath id="SVGID_4_">
			<use xlink:href="#SVGID_3_"  style="overflow:visible;"/>
		</clipPath>
		<g class="st4">
			<defs>
				<rect id="SVGID_5_" x="-309.7" y="-1011.1" width="1024" height="2765"/>
			</defs>
			<clipPath id="SVGID_6_">
				<use xlink:href="#SVGID_5_"  style="overflow:visible;"/>
			</clipPath>
		</g>
	</g>
	<g class="st3">
		<defs>
			<rect id="SVGID_7_" x="-309.7" y="-1011.1" width="1024" height="2765"/>
		</defs>
		<clipPath id="SVGID_8_">
			<use xlink:href="#SVGID_7_"  style="overflow:visible;"/>
		</clipPath>
	</g>
	<g class="st3">
		<defs>
			<path id="SVGID_9_" d="M91.1,7.1l0.1,20.2c0,1.1-0.8,1.9-1.9,1.9c-1.1,0-1.9-0.9-1.9-1.9L87.3,7.1"/>
		</defs>
		<clipPath id="SVGID_10_">
			<use xlink:href="#SVGID_9_"  style="overflow:visible;"/>
		</clipPath>
		<g class="st7">
			<defs>
				<rect id="SVGID_11_" x="-309.7" y="-1011.1" width="1024" height="2765"/>
			</defs>
			<clipPath id="SVGID_12_">
				<use xlink:href="#SVGID_11_"  style="overflow:visible;"/>
			</clipPath>
		</g>
	</g>
	<g class="st3">
		<defs>
			<rect id="SVGID_13_" x="-309.7" y="-1011.1" width="1024" height="2765"/>
		</defs>
		<clipPath id="SVGID_14_">
			<use xlink:href="#SVGID_13_"  style="overflow:visible;"/>
		</clipPath>
	</g>
	<g class="st3">
		<defs>
			<path id="SVGID_15_" d="M79.6,7.1l0.1,20.2c0,1.1-0.8,1.9-1.9,1.9c-1.1,0-1.9-0.9-1.9-1.9L75.8,7.1"/>
		</defs>
		<clipPath id="SVGID_16_">
			<use xlink:href="#SVGID_15_"  style="overflow:visible;"/>
		</clipPath>
		<g class="st10">
			<defs>
				<rect id="SVGID_17_" x="-309.7" y="-1011.1" width="1024" height="2765"/>
			</defs>
			<clipPath id="SVGID_18_">
				<use xlink:href="#SVGID_17_"  style="overflow:visible;"/>
			</clipPath>
		</g>
	</g>
	<g class="st3">
		<defs>
			<rect id="SVGID_19_" x="-309.7" y="-1011.1" width="1024" height="2765"/>
		</defs>
		<clipPath id="SVGID_20_">
			<use xlink:href="#SVGID_19_"  style="overflow:visible;"/>
		</clipPath>
	</g>
	<g class="st3">
		<defs>
			<polygon id="SVGID_21_" points="89.3,-6.1 109.5,7.2 69.1,7.2 			"/>
		</defs>
		<clipPath id="SVGID_22_">
			<use xlink:href="#SVGID_21_"  style="overflow:visible;"/>
		</clipPath>
		<g class="st13">
			<defs>
				<rect id="SVGID_23_" x="-309.7" y="-1011.1" width="1024" height="2765"/>
			</defs>
			<clipPath id="SVGID_24_">
				<use xlink:href="#SVGID_23_"  style="overflow:visible;"/>
			</clipPath>
		</g>
	</g>
	<g class="st3">
		<defs>
			<rect id="SVGID_25_" x="-309.7" y="-1011.1" width="1024" height="2765"/>
		</defs>
		<clipPath id="SVGID_26_">
			<use xlink:href="#SVGID_25_"  style="overflow:visible;"/>
		</clipPath>
	</g>
	<g class="st3">
		<defs>
			<path id="SVGID_27_" d="M68.1,27.1v3.7c0,1.1,0.9,2,2,2h38.3c1.1,0,2-0.9,2-2v-3.7c0-1.1-0.9-2-2-2H70.1
				C69,25.2,68.1,26,68.1,27.1z M70.1,27.1C70.1,27.2,70.1,27.2,70.1,27.1l38.3,0c0,0,0,0,0,0v3.7c0,0,0,0,0,0H70.1c0,0,0,0,0,0
				V27.1z M48.1,5.2h82.3v47.7H48.1V5.2z"/>
		</defs>
		<clipPath id="SVGID_28_">
			<use xlink:href="#SVGID_27_"  style="overflow:visible;"/>
		</clipPath>
		<g class="st16">
			<defs>
				<path id="SVGID_29_" d="M69.1,27.1c0-0.5,0.5-1,1-1h38.3c0.6,0,1,0.4,1,1v3.7c0,0.5-0.5,1-1,1H70.1c-0.6,0-1-0.4-1-1V27.1z"/>
			</defs>
			<clipPath id="SVGID_30_">
				<use xlink:href="#SVGID_29_"  style="overflow:visible;"/>
			</clipPath>
			<g class="st17">
				<defs>
					<rect id="SVGID_31_" x="-309.7" y="-1011.1" width="1024" height="2765"/>
				</defs>
				<clipPath id="SVGID_32_">
					<use xlink:href="#SVGID_31_"  style="overflow:visible;"/>
				</clipPath>
			</g>
		</g>
	</g>
	<g class="st3">
		<defs>
			<path id="SVGID_33_" d="M69.1,27.1c0-0.5,0.5-1,1-1h38.3c0.6,0,1,0.4,1,1v3.7c0,0.5-0.5,1-1,1H70.1c-0.6,0-1-0.4-1-1V27.1z"/>
		</defs>
		<clipPath id="SVGID_34_">
			<use xlink:href="#SVGID_33_"  style="overflow:visible;"/>
		</clipPath>
		<g class="st19">
			<defs>
				<rect id="SVGID_35_" x="-309.7" y="-1011.1" width="1024" height="2765"/>
			</defs>
			<clipPath id="SVGID_36_">
				<use xlink:href="#SVGID_35_"  style="overflow:visible;"/>
			</clipPath>
		</g>
	</g>
	<g class="st3">
		<defs>
			<circle id="SVGID_37_" cx="106" cy="6.6" r="8.7"/>
		</defs>
		<clipPath id="SVGID_38_">
			<use xlink:href="#SVGID_37_"  style="overflow:visible;"/>
		</clipPath>
		<g class="st21">
			<defs>
				<rect id="SVGID_39_" x="-309.7" y="-1011.1" width="1024" height="2765"/>
			</defs>
			<clipPath id="SVGID_40_">
				<use xlink:href="#SVGID_39_"  style="overflow:visible;"/>
			</clipPath>
		</g>
	</g>
	<g class="st3">
		<defs>
			<rect id="SVGID_41_" x="-309.7" y="-1011.1" width="1024" height="2765"/>
		</defs>
		<clipPath id="SVGID_42_">
			<use xlink:href="#SVGID_41_"  style="overflow:visible;"/>
		</clipPath>
	</g>
</g>
<g>
	<g>
		<rect x="9.4" y="11.8" class="st25" width="3.9" height="21.2"/>
		<rect x="20.6" y="11.8" class="st25" width="3.9" height="21.2"/>
		<rect x="31.7" y="11.8" class="st25" width="3.9" height="21.2"/>
	</g>
	<polygon class="st26" points="22.5,0.9 43.7,14.2 1.3,14.2 	"/>
	<g>
		<path class="st0" d="M42.9,36c0,0.5-0.4,0.9-0.9,0.9H3c-0.5,0-0.9-0.4-0.9-0.9v-1.9c0-0.5,0.4-0.9,0.9-0.9H42
			c0.5,0,0.9,0.4,0.9,0.9V36z"/>
		<path class="st27" d="M42.9,36c0,0.5-0.4,0.9-0.9,0.9H3c-0.5,0-0.9-0.4-0.9-0.9v-1.9c0-0.5,0.4-0.9,0.9-0.9H42
			c0.5,0,0.9,0.4,0.9,0.9V36z"/>
	</g>
</g>
<g>
	<g>
		<circle class="st2" cx="36.4" cy="13.8" r="7.6"/>
		<path class="st1" d="M36.4,7.2c3.6,0,6.6,3,6.6,6.6s-3,6.6-6.6,6.6s-6.6-3-6.6-6.6S32.8,7.2,36.4,7.2 M36.4,5.2
			c-4.8,0-8.6,3.9-8.6,8.6s3.9,8.6,8.6,8.6s8.6-3.9,8.6-8.6S41.1,5.2,36.4,5.2L36.4,5.2z"/>
	</g>
	<polyline class="st28" points="33.3,14 35.3,16.4 39.5,11.2 	"/>
</g>
</svg>
