<?xml version="1.0" encoding="utf-8"?>
<!-- Generator: Adobe Illustrator 20.1.0, SVG Export Plug-In . SVG Version: 6.00 Build 0)  -->
<svg version="1.1" id="Layer_1" xmlns="http://www.w3.org/2000/svg" xmlns:xlink="http://www.w3.org/1999/xlink" x="0px" y="0px"
	 viewBox="0 0 45 38.7" style="enable-background:new 0 0 45 38.7;" xml:space="preserve">
<style type="text/css">
	.st0{fill:none;}
	.st1{fill:#92C8F6;stroke:#122E51;stroke-width:2;stroke-miterlimit:10;}
	.st2{fill:#92C8F6;stroke:#122E51;stroke-width:2.0302;stroke-linejoin:round;stroke-miterlimit:10;}
	.st3{fill:#92C8F6;}
	.st4{fill:none;stroke:#122E51;stroke-width:2.0831;stroke-miterlimit:10;}
	.st5{fill:#FFFFFF;}
	.st6{fill:#122E51;}
	.st7{fill:none;stroke:#122E51;stroke-width:2;stroke-linecap:round;stroke-linejoin:round;stroke-miterlimit:10;}
	.st8{clip-path:url(#SVGID_2_);}
	.st9{clip-path:url(#SVGID_4_);}
	.st10{clip-path:url(#SVGID_6_);fill:#FFFFFF;}
	
		.st11{clip-path:url(#SVGID_8_);fill:none;stroke:#122E51;stroke-width:2;stroke-linecap:round;stroke-linejoin:round;stroke-miterlimit:10;}
	.st12{clip-path:url(#SVGID_10_);}
	.st13{clip-path:url(#SVGID_12_);fill:#92C8F6;}
	
		.st14{clip-path:url(#SVGID_14_);fill:none;stroke:#122E51;stroke-width:2;stroke-linecap:round;stroke-linejoin:round;stroke-miterlimit:10;}
	.st15{fill:none;stroke:#000000;stroke-width:1.9117;stroke-linecap:round;stroke-linejoin:round;}
	.st16{fill:#92C8F6;stroke:#122E51;stroke-width:2;stroke-linecap:round;stroke-linejoin:round;stroke-miterlimit:10;}
</style>
<g>
	<defs>
		<rect id="SVGID_1_" x="-70.2" y="-3.8" width="60.8" height="53.7"/>
	</defs>
	<clipPath id="SVGID_2_">
		<use xlink:href="#SVGID_1_"  style="overflow:visible;"/>
	</clipPath>
	<g class="st8">
		<defs>
			<path id="SVGID_3_" d="M-57.5,6.8c0-1.1,0.9-2,2-2h30c1.1,0,2,0.9,2,2V37c0,1.1-0.9,2-2,2h-30c-1.1,0-2-0.9-2-2V6.8z"/>
		</defs>
		<clipPath id="SVGID_4_">
			<use xlink:href="#SVGID_3_"  style="overflow:visible;"/>
		</clipPath>
		<g class="st9">
			<defs>
				<rect id="SVGID_5_" x="-784.5" y="-1002" width="1024" height="2765"/>
			</defs>
			<clipPath id="SVGID_6_">
				<use xlink:href="#SVGID_5_"  style="overflow:visible;"/>
			</clipPath>
		</g>
	</g>
	<g class="st8">
		<defs>
			<rect id="SVGID_7_" x="-784.5" y="-1002" width="1024" height="2765"/>
		</defs>
		<clipPath id="SVGID_8_">
			<use xlink:href="#SVGID_7_"  style="overflow:visible;"/>
		</clipPath>
	</g>
	<g class="st8">
		<defs>
			<path id="SVGID_9_" d="M-57.5,7c0-1.1,0.9-2,2-2h30c1.1,0,2,0.9,2,2v7.2c0,1.1-0.9,2-2,2h-30c-1.1,0-2-0.9-2-2V7z"/>
		</defs>
		<clipPath id="SVGID_10_">
			<use xlink:href="#SVGID_9_"  style="overflow:visible;"/>
		</clipPath>
		<g class="st12">
			<defs>
				<rect id="SVGID_11_" x="-784.5" y="-1002" width="1024" height="2765"/>
			</defs>
			<clipPath id="SVGID_12_">
				<use xlink:href="#SVGID_11_"  style="overflow:visible;"/>
			</clipPath>
		</g>
	</g>
	<g class="st8">
		<defs>
			<rect id="SVGID_13_" x="-784.5" y="-1002" width="1024" height="2765"/>
		</defs>
		<clipPath id="SVGID_14_">
			<use xlink:href="#SVGID_13_"  style="overflow:visible;"/>
		</clipPath>
	</g>
</g>
<path class="st7" d="M37,37.7H8c-1.5,0-2.8-1.3-2.8-2.8V7.8C5.2,6.2,6.5,5,8,5H37c1.5,0,2.8,1.3,2.8,2.8V35
	C39.8,36.5,38.5,37.7,37,37.7z"/>
<g>
	<path class="st3" d="M7.4,15.3c-1.2,0-2.1-1-2.1-2.1v-6c0-1.2,1-2.1,2.1-2.1h30.1c1.2,0,2.1,1,2.1,2.1v6c0,1.2-1,2.1-2.1,2.1H7.4z"
		/>
	<path class="st6" d="M37.5,6.1c0.6,0,1.1,0.5,1.1,1.1v6c0,0.6-0.5,1.1-1.1,1.1H7.4c-0.6,0-1.1-0.5-1.1-1.1v-6
		c0-0.6,0.5-1.1,1.1-1.1H37.5 M37.5,4.1H7.4c-1.7,0-3.1,1.4-3.1,3.1v6c0,1.7,1.4,3.1,3.1,3.1h30.1c1.7,0,3.1-1.4,3.1-3.1v-6
		C40.6,5.5,39.2,4.1,37.5,4.1L37.5,4.1z"/>
</g>
<line class="st16" x1="29.9" y1="0.9" x2="29.9" y2="8.3"/>
<line class="st16" x1="15.1" y1="0.9" x2="15.1" y2="8.3"/>
<g>
	<path class="st6" d="M21.3,28c-0.1-0.4,0-0.7,0-1c0.1-0.3,0.2-0.6,0.3-0.8c0.1-0.3,0.3-0.5,0.5-0.7c0.2-0.2,0.4-0.4,0.5-0.6
		s0.3-0.4,0.4-0.6c0.1-0.2,0.2-0.4,0.2-0.6c0-0.3-0.1-0.6-0.3-0.8s-0.5-0.3-0.8-0.3c-0.3,0-0.6,0.1-0.8,0.2
		c-0.2,0.1-0.4,0.3-0.7,0.5l-1.3-1.2c0.4-0.4,0.8-0.8,1.3-1.1s1-0.4,1.6-0.4c0.4,0,0.9,0.1,1.3,0.2c0.4,0.1,0.7,0.3,1,0.5
		s0.5,0.5,0.7,0.9c0.2,0.3,0.2,0.8,0.2,1.2c0,0.3-0.1,0.6-0.2,0.9c-0.1,0.3-0.3,0.5-0.4,0.7s-0.4,0.4-0.6,0.6
		c-0.2,0.2-0.4,0.4-0.5,0.6s-0.3,0.5-0.4,0.7c-0.1,0.2-0.1,0.5-0.1,0.9H21.3z M20.9,30.4c0-0.4,0.1-0.8,0.4-1.1s0.6-0.4,1-0.4
		c0.4,0,0.7,0.1,1,0.4s0.4,0.6,0.4,1.1c0,0.4-0.1,0.8-0.4,1c-0.3,0.3-0.6,0.4-1,0.4c-0.4,0-0.7-0.1-1-0.4
		C21,31.2,20.9,30.8,20.9,30.4z"/>
</g>
</svg>
