<?xml version="1.0" standalone="no"?>
<!DOCTYPE svg PUBLIC "-//W3C//DTD SVG 20010904//EN"
 "http://www.w3.org/TR/2001/REC-SVG-20010904/DTD/svg10.dtd">
<svg version="1.0" xmlns="http://www.w3.org/2000/svg"
 width="700.000000pt" height="700.000000pt" viewBox="0 0 700.000000 700.000000"
 preserveAspectRatio="xMidYMid meet">
<metadata>
Created by potrace 1.11, written by Peter Selinger 2001-2013
</metadata>
<g transform="translate(0.000000,700.000000) scale(0.100000,-0.100000)"
fill="#000000" stroke="none">
<path d="M3310 6980 c-1224 -67 -2327 -777 -2896 -1865 -198 -378 -309 -740
-376 -1225 -20 -146 -17 -651 5 -810 119 -854 478 -1554 1090 -2127 542 -507
1223 -819 1987 -909 284 -34 700 -20 990 32 1175 213 2158 1005 2610 2105 117
284 189 560 237 899 22 159 25 664 5 810 -41 294 -91 518 -167 738 -408 1193
-1434 2077 -2670 2301 -60 11 -149 24 -196 30 -86 11 -412 32 -459 29 -14 0
-86 -4 -160 -8z m54 -382 c5 -33 26 -265 26 -288 0 -7 -14 -10 -37 -8 -34 3
-42 10 -100 92 -34 48 -65 91 -68 95 -7 6 1 -112 11 -176 5 -31 3 -33 -25 -33
-24 0 -32 5 -35 23 -8 34 -29 298 -25 302 2 1 22 5 43 7 40 3 40 3 102 -85
l62 -89 -5 96 -6 96 26 0 c22 0 27 -5 31 -32z m289 26 c76 -7 77 -7 77 -35 l0
-29 -80 0 -80 0 0 -34 c0 -30 4 -34 31 -40 17 -3 44 -6 60 -6 26 0 29 -4 29
-30 l0 -30 -60 0 -60 0 0 -42 c0 -73 -8 -88 -46 -88 -18 0 -35 4 -38 9 -3 4
-3 81 1 170 l6 161 42 0 c23 0 76 -3 118 -6z m349 -41 c82 -41 85 -204 7 -283
-41 -40 -85 -47 -143 -21 -37 16 -51 29 -66 63 -24 52 -25 79 -5 144 31 104
115 144 207 97z m-987 -153 c16 -88 26 -162 23 -166 -4 -3 -21 -7 -39 -7 l-32
-2 -28 150 c-16 83 -28 155 -29 162 0 6 15 14 33 16 17 2 35 5 38 5 3 1 19
-70 34 -158z m1318 88 c43 -13 75 -30 87 -46 38 -47 18 -122 -37 -143 -24 -9
-25 -12 -19 -67 4 -31 9 -65 12 -74 6 -21 -19 -24 -59 -9 -22 9 -26 18 -32 79
-6 63 -9 70 -31 75 -25 4 -26 3 -50 -96 -5 -21 -11 -26 -25 -22 -11 3 -28 8
-39 11 -14 4 -19 12 -16 22 3 9 21 78 41 152 21 74 39 139 42 143 6 10 29 5
126 -25z m-1677 -34 c8 -32 3 -37 -74 -59 -60 -18 -63 -20 -57 -44 10 -41 20
-45 71 -27 62 21 60 21 72 -14 11 -29 11 -29 -46 -47 -31 -9 -58 -18 -60 -19
-2 -1 6 -26 18 -55 11 -30 20 -57 20 -61 0 -7 -69 -32 -75 -26 -5 5 -95 292
-95 303 0 11 169 72 202 74 11 1 20 -9 24 -25z m1988 -64 c52 -24 53 -26 36
-144 -6 -38 -9 -71 -7 -73 2 -1 32 30 67 71 l63 74 46 -20 c25 -10 50 -23 54
-27 6 -6 -104 -283 -118 -299 -4 -4 -75 18 -75 23 0 1 23 54 50 116 28 62 50
115 50 117 0 2 -39 -41 -87 -97 -48 -56 -90 -101 -93 -101 -3 0 -14 6 -24 13
-18 13 -18 20 -3 138 8 68 13 125 12 127 -1 1 -24 -47 -50 -108 -48 -110 -58
-120 -95 -100 -17 9 -15 18 37 137 30 71 59 138 64 151 10 27 15 27 73 2z
m-2357 -61 c42 -16 73 -48 99 -104 40 -85 25 -167 -38 -205 -77 -47 -163 -14
-210 79 -50 98 -34 173 46 222 35 22 62 24 103 8z m2849 -190 c19 -11 34 -26
34 -32 -1 -16 -77 -317 -82 -322 -2 -2 -18 5 -36 17 -29 18 -31 23 -26 56 5
36 4 38 -41 61 l-45 24 -24 -22 c-23 -22 -25 -22 -56 -6 -18 9 -28 20 -24 25
47 43 257 220 261 220 3 0 21 -9 39 -21z m-3234 -156 c46 -65 87 -124 92 -131
8 -13 -29 -51 -50 -52 -6 0 -42 43 -79 95 -38 52 -70 93 -72 92 -1 -2 16 -57
39 -121 l42 -118 -24 -18 c-24 -18 -24 -18 -121 56 -54 41 -101 74 -104 74 -3
0 26 -43 65 -97 67 -91 69 -97 54 -115 -10 -10 -22 -18 -28 -18 -11 0 -191
248 -191 263 0 5 20 23 44 42 l45 33 78 -59 c43 -33 78 -56 78 -51 0 4 -13 47
-29 95 l-29 86 46 35 c26 19 50 32 53 30 4 -2 45 -57 91 -121z m3485 -13 c51
-39 93 -74 93 -78 -1 -10 -26 -42 -34 -42 -4 0 -20 10 -36 22 -16 12 -31 20
-33 17 -2 -2 -37 -48 -77 -101 -40 -54 -78 -98 -84 -98 -20 1 -58 39 -50 51 4
7 38 53 76 102 37 49 68 92 68 96 0 4 -14 17 -30 29 -29 22 -29 23 -14 47 9
14 19 25 22 25 3 0 47 -32 99 -70z m-1531 6 c996 -149 1804 -852 2079 -1807
67 -233 96 -443 96 -704 0 -330 -53 -623 -165 -910 -157 -401 -415 -760 -746
-1037 -686 -576 -1654 -743 -2493 -432 -836 311 -1450 1034 -1616 1904 -32
166 -42 282 -42 475 0 444 95 823 305 1210 384 712 1120 1215 1906 1304 52 6
109 13 125 15 65 9 456 -4 551 -18z m1733 -170 l22 -24 -106 -121 c-59 -66
-110 -121 -114 -121 -4 0 -18 11 -30 24 l-23 25 28 34 c100 118 180 206 190
207 6 0 21 -11 33 -24z m-4123 -65 c121 -55 164 -183 88 -263 -59 -61 -131
-58 -207 11 -80 71 -95 156 -40 222 44 52 91 61 159 30z m4277 -95 c57 -24 82
-61 82 -120 0 -136 -171 -238 -266 -159 -72 61 -71 140 4 220 37 39 97 71 135
73 7 0 27 -6 45 -14z m-4510 -179 c45 -19 105 -89 113 -131 3 -20 1 -49 -4
-66 -11 -29 -91 -140 -102 -140 -6 0 -227 173 -248 194 -11 11 -5 23 33 69 25
31 58 63 73 72 34 18 93 19 135 2z m4777 -118 c0 -4 -18 -46 -39 -95 -22 -49
-38 -90 -36 -92 2 -2 34 19 72 47 l68 50 17 -22 c21 -27 27 -21 -126 -132
l-120 -87 -18 22 c-10 12 -18 27 -18 34 0 6 21 56 45 110 25 55 43 101 41 103
-2 3 -38 -21 -80 -51 -41 -31 -79 -56 -83 -56 -14 0 -35 42 -26 50 4 5 64 49
132 99 l124 91 24 -32 c12 -18 23 -35 23 -39z m-5069 -119 c26 -14 24 -22 -16
-86 -19 -30 -35 -58 -35 -63 0 -5 11 -16 25 -25 25 -17 26 -17 57 34 17 27 33
50 35 50 5 0 45 -21 52 -26 2 -2 -11 -26 -28 -54 -17 -28 -31 -52 -31 -55 0
-2 13 -11 29 -20 l29 -15 41 65 c23 36 44 65 47 65 2 0 16 -7 29 -16 l24 -16
-61 -96 c-34 -53 -63 -99 -64 -100 -4 -7 -274 170 -274 179 0 9 112 189 118
189 2 0 12 -5 23 -10z m-171 -300 c18 -10 18 -13 -10 -73 -17 -34 -30 -67 -30
-73 0 -10 49 -39 55 -32 1 2 14 27 29 55 25 50 27 52 51 41 31 -14 31 -17 1
-77 l-25 -48 29 -17 29 -17 36 71 c19 38 38 70 41 70 5 0 45 -19 52 -25 3 -3
-95 -204 -103 -213 -2 -3 -284 135 -293 143 -7 6 99 205 109 205 6 0 19 -5 29
-10z m5548 -89 l22 -39 -129 -121 -128 -121 -19 42 c-18 41 -18 41 4 56 27 18
28 32 2 83 -20 37 -23 39 -55 33 -30 -5 -35 -3 -49 24 l-16 31 43 6 c23 4 96
15 162 25 66 10 125 18 131 19 6 0 20 -16 32 -38z m69 -242 c46 -17 71 -49 84
-105 14 -62 2 -102 -39 -134 -33 -27 -39 -25 -58 11 -15 30 -15 32 12 60 24
25 26 32 16 54 -21 45 -92 43 -169 -5 -54 -32 -34 -100 29 -100 16 0 28 -5 28
-12 0 -7 3 -23 6 -35 6 -21 3 -23 -29 -23 -50 0 -84 18 -108 56 -39 63 -21
163 36 200 61 40 139 53 192 33z m-5675 -35 c9 -9 19 -25 22 -37 5 -21 10 -22
86 -19 l81 4 -16 -37 c-8 -21 -15 -39 -15 -41 0 -2 -31 -4 -68 -4 -64 0 -70
-2 -80 -26 -11 -23 -10 -26 21 -39 18 -7 45 -17 60 -20 15 -4 27 -11 27 -15 0
-13 -22 -70 -27 -70 -4 0 -239 81 -287 100 l-26 9 31 88 c17 48 40 98 51 110
33 36 98 34 140 -3z m5822 -281 c9 -33 46 -195 46 -204 0 -5 -12 -14 -27 -20
-30 -11 -43 0 -43 38 0 12 -3 24 -8 27 -4 2 -63 -9 -131 -26 -67 -16 -124 -28
-126 -26 -2 2 -6 19 -10 38 l-6 36 118 28 c65 16 122 32 126 36 5 4 4 24 -1
43 -9 30 -7 37 6 40 35 9 51 6 56 -10z m-6031 -22 l25 -10 -16 -70 c-8 -39
-13 -73 -10 -76 2 -3 19 -8 36 -11 27 -5 32 -3 32 12 0 11 5 36 11 57 9 33 14
38 37 35 29 -3 29 -4 16 -85 l-6 -42 62 -12 62 -12 -7 -36 c-4 -20 -9 -39 -11
-42 -3 -5 -313 59 -322 67 -7 5 51 234 59 234 4 0 19 -4 32 -9z m89 -681 l18
-59 66 -3 67 -3 -52 -35 c-28 -19 -51 -40 -51 -46 0 -6 9 -37 20 -69 12 -36
15 -54 7 -48 -6 5 -31 25 -54 43 l-42 33 -56 -42 c-30 -23 -55 -39 -55 -37 0
3 9 28 20 56 11 28 20 56 20 63 0 7 -23 28 -52 47 l-51 35 69 5 68 5 15 58 c8
31 17 57 20 57 4 0 14 -27 23 -60z m5859 3 l15 -58 68 -5 69 -5 -51 -35 c-29
-19 -52 -40 -52 -47 0 -7 9 -35 20 -63 11 -28 20 -53 20 -56 0 -2 -25 14 -55
37 l-56 42 -42 -33 c-23 -18 -48 -38 -54 -43 -8 -6 -5 12 7 48 11 32 20 63 20
69 0 6 -23 27 -51 46 l-52 35 67 3 66 3 18 59 c9 33 19 60 23 60 3 0 12 -26
20 -57z m-5892 -651 c45 -274 135 -545 273 -822 87 -175 217 -384 322 -515
134 -168 360 -393 521 -516 315 -242 739 -449 1083 -529 l52 -12 0 -44 c0 -24
-3 -44 -7 -44 -18 0 -197 51 -298 85 -60 21 -169 64 -242 96 -881 389 -1529
1168 -1753 2107 -30 127 -61 315 -52 323 9 10 65 16 73 9 4 -3 16 -65 28 -138z
m5986 128 c6 -9 -28 -211 -55 -322 -224 -939 -872 -1718 -1753 -2107 -149 -66
-302 -120 -460 -161 l-108 -29 3 47 3 46 85 21 c437 110 896 358 1235 668 105
96 272 273 351 372 105 131 235 340 322 515 137 275 227 546 272 817 11 70 23
133 24 139 4 11 73 7 81 -6z m-5850 -32 c47 -313 130 -578 270 -863 284 -578
775 -1053 1363 -1319 125 -57 340 -135 430 -156 l52 -12 0 -45 0 -45 -32 7
c-60 13 -222 65 -318 102 -912 348 -1596 1140 -1809 2093 -27 119 -50 268 -43
275 3 3 22 5 43 5 36 0 37 -1 44 -42z m5697 7 c-7 -72 -35 -219 -63 -329 -223
-894 -880 -1644 -1739 -1989 -130 -52 -242 -89 -362 -120 l-58 -15 0 44 0 43
58 16 c969 270 1699 979 1986 1929 34 111 76 300 91 409 l6 48 42 -3 c40 -3
42 -4 39 -33z m-2413 -2410 c16 -8 31 -21 34 -30 9 -22 -38 -31 -58 -11 -9 9
-20 16 -24 16 -14 0 -31 -25 -31 -46 0 -21 2 -22 30 -12 45 15 78 3 97 -36 15
-32 15 -36 -3 -67 -35 -60 -115 -64 -154 -9 -47 66 -34 171 24 196 40 17 51
17 85 -1z m-864 -99 l-7 -104 29 -4 c21 -2 29 -9 31 -27 4 -22 2 -23 -47 -17
-28 3 -74 9 -102 12 -39 5 -49 10 -47 23 2 11 15 17 41 19 28 2 37 8 37 21 0
10 3 40 7 66 6 45 5 48 -13 41 -47 -20 -54 -19 -54 6 0 20 7 27 40 37 21 6 42
16 45 21 3 6 15 10 27 10 20 0 20 -3 13 -104z m279 74 c57 -21 75 -146 29
-208 -28 -38 -101 -44 -132 -11 -12 13 -21 26 -21 30 0 15 49 15 65 0 21 -21
49 -3 53 35 3 23 1 27 -9 17 -28 -28 -83 -13 -105 28 -24 47 0 99 51 112 33 8
42 7 69 -3z m301 -6 c18 -8 36 -22 39 -29 8 -21 -32 -30 -53 -11 -29 27 -51
17 -65 -30 -6 -20 -4 -21 42 -16 44 4 51 2 70 -23 39 -50 21 -104 -43 -125
-124 -41 -183 176 -64 237 31 16 35 16 74 -3z"/>
<path d="M3890 6508 c-26 -42 -28 -139 -4 -163 41 -40 95 12 102 98 4 46 1 58
-17 76 -30 30 -58 26 -81 -11z"/>
<path d="M4257 6449 c-13 -47 -8 -57 28 -63 41 -8 75 7 75 33 0 25 -21 41 -63
48 -30 4 -35 2 -40 -18z"/>
<path d="M2201 6281 c-34 -22 10 -153 59 -178 67 -33 91 73 33 144 -30 38 -66
51 -92 34z"/>
<path d="M5030 6055 c-18 -19 -32 -36 -29 -38 2 -3 14 -10 27 -16 25 -13 24
-14 41 52 5 20 6 37 2 37 -4 0 -22 -16 -41 -35z"/>
<path d="M3246 5889 c-43 -5 -81 -10 -83 -13 -2 -2 25 -215 60 -472 36 -258
61 -473 57 -477 -4 -4 -47 -7 -95 -5 l-89 3 -96 448 c-53 246 -99 449 -101
451 -5 5 -222 -64 -232 -74 -6 -6 208 -703 251 -818 3 -10 -19 -12 -103 -10
l-107 3 -144 354 c-79 195 -146 356 -149 359 -5 5 -164 -81 -195 -106 l-23
-19 149 -283 c82 -156 150 -290 152 -297 3 -10 -23 -13 -111 -13 -94 0 -117 3
-128 16 -8 9 -70 107 -140 217 -69 111 -130 202 -136 204 -5 2 -49 -34 -98
-79 l-88 -83 147 -189 146 -189 0 -82 0 -82 -51 -23 -51 -24 -16 21 c-40 51
-337 373 -344 373 -11 0 -138 -172 -138 -187 0 -6 80 -84 179 -174 l179 -162
-45 -66 c-24 -36 -46 -76 -50 -88 -3 -13 -8 -23 -12 -23 -3 0 -91 66 -194 146
-103 81 -190 144 -192 142 -16 -15 -94 -212 -87 -217 5 -3 104 -66 219 -139
l210 -133 1 -115 2 -115 -63 34 c-281 154 -450 238 -457 227 -8 -13 -52 -212
-48 -215 2 -1 147 -60 323 -131 276 -111 324 -133 350 -164 147 -171 309 -244
525 -238 71 2 116 -2 138 -11 31 -13 32 -15 32 -73 0 -60 0 -60 -26 -54 -14 4
-327 104 -696 222 -368 119 -671 214 -673 212 -9 -10 -16 -206 -7 -212 9 -5
1382 -306 1397 -306 3 0 5 -28 5 -61 l0 -61 -32 6 c-100 18 -1351 186 -1355
182 -5 -5 23 -195 29 -201 2 -1 253 -12 558 -24 305 -12 610 -24 678 -28 l122
-6 0 -46 0 -47 -664 4 -664 4 12 -42 11 -43 330 7 c181 3 475 9 653 13 314 6
322 5 322 -13 0 -19 -28 -22 -630 -60 -347 -23 -633 -43 -636 -47 -3 -3 3 -25
14 -49 l19 -44 599 63 c329 34 607 62 617 62 11 1 17 -6 17 -19 0 -11 -6 -20
-12 -20 -32 -1 -1169 -178 -1174 -183 -3 -3 4 -26 15 -52 16 -36 25 -45 38
-41 27 8 1106 216 1121 216 6 0 12 -9 12 -20 0 -14 -10 -22 -37 -29 -21 -6
-266 -67 -545 -137 -280 -69 -508 -131 -508 -135 0 -17 50 -89 62 -89 6 0 228
65 492 144 599 180 538 165 534 130 -3 -27 -13 -31 -480 -203 -263 -97 -478
-180 -478 -185 0 -5 16 -30 36 -56 l36 -47 439 188 c242 104 442 189 444 189
3 0 5 -17 5 -38 l0 -37 -342 -179 c-189 -99 -367 -193 -396 -209 l-54 -30 53
-53 c29 -30 57 -54 61 -54 4 0 155 91 335 201 180 111 331 203 336 206 4 2 7
-24 7 -59 l0 -63 -270 -204 c-149 -112 -270 -207 -270 -210 0 -4 34 -33 75
-64 l74 -58 163 147 c90 81 178 161 196 178 l32 30 0 -122 0 -121 -95 -110
c-52 -60 -95 -115 -95 -120 0 -10 240 -132 286 -145 l22 -7 7 1094 7 1094 52
38 c28 20 69 59 90 85 34 41 43 46 58 36 50 -31 48 11 48 -1254 0 -1067 2
-1180 16 -1186 9 -3 16 -6 17 -6 1 0 0 547 -3 1216 l-5 1216 -36 32 c-36 30
-36 32 -23 59 l15 27 643 0 643 0 12 -26 c6 -15 10 -27 9 -28 -2 -1 -19 -10
-38 -19 -19 -10 -27 -16 -18 -13 31 9 84 -14 109 -46 l24 -33 3 -1168 c2 -921
5 -1168 15 -1164 9 3 13 252 15 1151 l2 1147 45 -31 45 -31 0 -1094 c0 -706 3
-1095 10 -1095 5 0 34 10 64 22 l55 23 3 50 3 50 23 -38 24 -37 88 46 c48 26
95 53 105 60 15 11 4 28 -114 165 l-131 152 0 104 c0 56 3 103 6 103 3 0 102
-88 220 -195 l216 -195 28 20 c15 11 49 39 74 62 l45 43 -294 220 -294 220 -1
57 0 57 238 -146 c130 -80 291 -179 357 -220 l120 -73 54 56 c42 43 51 58 40
64 -8 4 -192 101 -409 215 -217 114 -396 208 -397 209 -2 1 -6 17 -9 36 -7 31
-6 33 17 27 13 -3 217 -90 454 -192 236 -102 435 -185 441 -185 7 0 28 22 47
49 l36 49 -27 10 c-93 33 -913 336 -939 347 -22 9 -33 21 -33 34 0 12 4 21 10
21 5 0 244 -70 531 -156 286 -85 522 -154 523 -152 2 2 15 24 30 49 l26 46
-556 139 c-334 83 -558 144 -561 152 -3 7 -3 16 1 19 5 5 990 -180 1143 -214
19 -4 26 2 43 42 11 26 19 49 18 50 -2 1 -264 41 -583 89 -319 48 -590 90
-602 93 -26 6 -32 33 -8 33 22 0 1175 -119 1207 -125 24 -4 28 0 44 41 9 24
15 46 13 48 -3 4 -1223 86 -1266 86 -7 0 -13 7 -13 17 0 15 33 15 418 9 229
-3 525 -9 657 -12 l240 -7 12 43 11 43 -669 -5 -670 -6 3 46 3 47 60 3 c33 1
338 13 679 27 340 13 620 26 623 29 5 5 35 187 31 191 -2 2 -309 -39 -683 -91
-374 -51 -688 -94 -697 -94 -15 0 -18 9 -18 49 0 28 3 52 8 54 7 5 1393 307
1407 307 7 0 -1 199 -9 207 -3 3 -1333 -421 -1389 -443 -15 -5 -17 2 -17 53
l0 60 81 31 c60 24 96 32 143 32 138 0 310 68 414 165 57 53 74 61 393 191
184 75 338 140 343 145 10 9 -18 184 -32 206 -4 6 -107 -43 -270 -129 -145
-77 -266 -138 -268 -135 -3 2 0 33 6 68 5 35 10 84 10 109 l0 45 213 133 c116
73 218 137 225 141 12 7 5 27 -62 184 l-17 38 -77 -61 c-42 -33 -129 -101
-194 -150 l-116 -89 -23 57 c-12 31 -33 73 -45 93 l-23 36 180 163 179 163
-21 36 c-11 20 -41 65 -66 100 l-46 63 -27 -28 c-15 -16 -93 -102 -174 -191
-82 -90 -152 -163 -158 -163 -5 0 -24 11 -41 24 -18 13 -51 33 -74 45 -24 12
-43 27 -43 34 0 6 79 113 175 237 96 124 175 227 175 230 0 9 -169 174 -174
169 -2 -2 -58 -89 -124 -194 l-120 -190 -121 -3 c-67 -1 -121 -1 -121 1 0 3
63 124 140 270 77 145 140 269 140 275 0 5 -15 19 -32 30 -18 10 -64 38 -101
61 -38 23 -71 40 -73 38 -3 -2 -62 -146 -133 -319 -71 -173 -134 -324 -140
-336 -11 -20 -19 -22 -111 -22 -60 0 -100 4 -100 10 0 5 56 184 124 397 69
213 123 389 121 391 -2 2 -54 21 -116 43 -72 26 -115 36 -119 29 -3 -5 -46
-193 -94 -418 -48 -224 -91 -417 -96 -429 -9 -22 -16 -23 -101 -23 l-90 0 6
53 c4 28 32 239 64 467 39 283 54 417 47 422 -14 8 -157 28 -206 28 l-38 0 -6
-97 c-3 -54 -11 -235 -16 -403 -6 -168 -13 -342 -16 -388 l-6 -83 -91 3 -92 3
-17 420 c-9 231 -17 450 -17 488 l-1 67 -47 -1 c-27 -1 -83 -5 -127 -10z
m1534 -1134 l0 -45 -1280 0 -1280 0 0 45 0 45 1280 0 1280 0 0 -45z m23 -163
c185 -76 314 -204 368 -362 30 -90 37 -268 15 -364 -54 -231 -247 -378 -496
-379 -205 -2 -355 84 -431 246 -102 219 -31 451 169 549 60 30 75 33 152 32
194 -2 325 -112 338 -286 4 -62 2 -74 -27 -133 -52 -105 -143 -165 -253 -168
-131 -2 -218 84 -218 217 0 68 16 82 23 20 4 -36 13 -55 40 -82 30 -30 44 -36
89 -39 99 -7 168 59 168 162 0 104 -75 172 -179 161 -125 -12 -206 -111 -205
-250 1 -118 56 -205 159 -251 67 -30 114 -36 188 -24 173 28 289 143 319 316
10 60 9 80 -5 137 -41 168 -142 262 -343 317 -66 18 -96 21 -194 17 -107 -5
-126 -9 -265 -57 -264 -91 -461 -125 -720 -124 -261 0 -424 28 -691 119 -96
32 -194 58 -242 64 -221 28 -453 -79 -531 -245 -12 -26 -29 -73 -37 -105 -41
-161 65 -361 223 -420 170 -63 330 -16 407 120 28 49 31 64 31 135 -1 86 -15
126 -64 178 -42 46 -93 67 -159 67 -99 0 -162 -62 -162 -158 0 -84 43 -141
121 -162 83 -23 155 23 182 115 l15 50 7 -46 c13 -86 -32 -176 -109 -216 -49
-26 -170 -23 -223 5 -63 33 -106 74 -138 134 -25 44 -30 64 -30 123 0 177 143
305 340 305 246 0 416 -240 350 -495 -55 -208 -224 -334 -452 -335 -138 0
-290 60 -381 151 -178 178 -189 522 -24 746 68 91 224 197 354 238 35 11 258
13 1243 12 l1200 -2 78 -33z m-2333 -468 c69 -28 101 -121 63 -185 -24 -40
-76 -63 -127 -56 -124 17 -147 193 -32 243 40 17 48 17 96 -2z m2159 -2 c37
-20 71 -73 71 -110 0 -66 -65 -132 -131 -132 -43 0 -97 32 -109 66 -26 66 2
148 60 176 44 23 67 23 109 0z m-1562 -72 c-5 -64 -41 -150 -61 -150 -7 0 -20
8 -29 18 -18 20 -47 121 -47 164 l0 28 71 0 72 0 -6 -60z m253 30 c0 -54 -22
-131 -45 -158 -20 -24 -24 -25 -40 -12 -26 22 -43 67 -51 138 l-7 62 72 0 71
0 0 -30z m246 -27 c-8 -67 -43 -147 -67 -151 -24 -4 -58 71 -65 146 l-7 62 73
0 73 0 -7 -57z m250 0 c-7 -65 -44 -146 -68 -151 -23 -4 -59 77 -65 148 l-6
60 73 0 73 0 -7 -57z m254 40 c0 -10 -6 -46 -13 -79 -14 -68 -40 -114 -62
-114 -24 0 -57 79 -63 147 l-5 63 72 0 c61 0 71 -2 71 -17z m-392 -205 c14
-17 11 -18 -52 -18 l-66 0 30 42 c16 22 30 48 30 57 1 9 10 -2 22 -24 11 -22
27 -48 36 -57z m248 0 c16 -17 15 -18 -49 -18 l-66 0 24 36 c13 19 27 45 31
57 6 18 8 17 25 -18 10 -21 26 -47 35 -57z m-786 68 c0 -8 11 -28 25 -44 14
-17 25 -33 25 -36 0 -3 -30 -6 -66 -6 l-66 0 25 30 c14 16 28 39 32 50 7 23
25 27 25 6z m288 -68 c14 -17 11 -18 -51 -18 l-65 0 31 48 32 48 19 -31 c10
-16 25 -38 34 -47z m-488 -12 c0 -3 -9 -6 -20 -6 -16 0 -20 7 -20 31 l0 32 20
-26 c11 -14 20 -28 20 -31z m1167 10 c-4 -9 -16 -16 -27 -16 -21 0 -20 8 3 38
13 17 32 -1 24 -22z m23 -121 c0 -13 -77 -15 -630 -15 -346 0 -630 4 -630 8 0
5 3 12 7 15 3 4 287 7 630 7 547 0 623 -2 623 -15z"/>
<path d="M3033 3640 c-31 -13 -29 -15 12 -16 45 -1 87 -31 102 -75 9 -26 12
-329 12 -1226 l1 -1192 -37 -3 c-67 -5 130 -29 297 -35 95 -4 206 -1 285 6
154 15 253 33 135 25 -41 -3 -83 -8 -92 -10 -17 -5 -18 62 -20 1235 l-3 1241
-26 26 c-31 30 -95 42 -122 22 -15 -12 -13 -13 20 -15 26 -1 45 -11 67 -33
l31 -30 3 -1224 2 -1223 -112 -6 c-61 -3 -115 -4 -120 -1 -4 3 -8 556 -8 1230
0 1345 4 1266 -60 1299 -35 18 -70 19 -93 3 -15 -11 -12 -13 20 -15 26 -1 45
-11 67 -33 l31 -30 3 -1225 2 -1225 -73 0 c-41 0 -95 3 -120 6 l-47 7 -2 1226
c-3 1333 1 1250 -59 1285 -30 18 -62 20 -96 6z"/>
<path d="M3844 3634 c-10 -8 -13 -13 -6 -9 22 12 71 -6 102 -37 l30 -30 0
-1209 0 -1209 -22 0 c-12 0 -19 -2 -16 -5 3 -3 25 -3 49 1 24 4 38 9 31 12 -9
3 -12 257 -12 1220 -1 941 -3 1221 -13 1232 -38 48 -105 64 -143 34z"/>
<path d="M2988 1143 c6 -2 18 -2 25 0 6 3 1 5 -13 5 -14 0 -19 -2 -12 -5z"/>
<path d="M3043 1133 c9 -2 23 -2 30 0 6 3 -1 5 -18 5 -16 0 -22 -2 -12 -5z"/>
<path d="M1360 5700 c-27 -27 -25 -40 10 -88 29 -40 75 -72 103 -72 18 0 47
32 47 51 0 24 -59 98 -91 114 -37 20 -45 19 -69 -5z"/>
<path d="M5635 5569 c-50 -46 -63 -76 -45 -108 20 -38 85 -19 133 39 33 39 41
64 27 90 -18 34 -64 26 -115 -21z"/>
<path d="M1101 5413 l-31 -28 75 -60 c41 -33 80 -61 85 -63 5 -2 17 12 26 32
15 29 15 39 4 66 -15 36 -56 68 -98 76 -23 5 -36 0 -61 -23z"/>
<path d="M6170 4833 c-48 -8 -51 -10 -38 -38 6 -14 14 -25 18 -25 3 0 21 16
40 35 33 34 32 37 -20 28z"/>
<path d="M602 4513 c-5 -16 -13 -35 -17 -44 -5 -13 2 -20 30 -29 42 -14 39
-15 53 28 14 42 1 72 -32 72 -17 0 -27 -8 -34 -27z"/>
<path d="M3921 512 c-15 -28 8 -57 38 -47 17 5 21 13 19 33 -4 34 -42 43 -57
14z"/>
<path d="M3330 575 c-26 -31 18 -71 47 -42 19 19 8 57 -16 57 -10 0 -24 -7
-31 -15z"/>
<path d="M3623 484 c-8 -22 10 -49 32 -49 22 0 40 27 32 49 -8 21 -56 21 -64
0z"/>
</g>
</svg>
